<svg width="349" height="299" viewBox="0 0 349 299" fill="none" xmlns="http://www.w3.org/2000/svg">
<path d="M120.29 298.821C118.001 298.821 116.105 297.483 114.67 294.851C109.734 285.781 104.805 276.703 99.8829 267.633C96.8199 261.998 87.7647 245.308 87.7647 245.308C83.8467 238.081 79.7949 230.61 75.706 223.309C74.7172 221.547 72.9181 219.956 71 219.153C46.4067 208.864 32.5786 191.207 28.7202 165.186C28.5863 164.287 28.5863 163.298 28.5863 162.242L28.564 152.302C28.5343 139.976 28.5046 127.233 28.5343 114.706C28.5417 111.933 30.4152 109.777 33.1957 109.346C33.5972 109.287 33.9986 109.249 34.3927 109.249C36.9947 109.249 39.0243 110.617 39.8272 112.915C40.1098 113.732 40.1544 114.825 40.1544 115.792C40.1767 124.059 40.1692 132.319 40.1692 140.586C40.1692 145.931 40.1692 151.277 40.1692 156.622C40.1915 182.025 54.882 201.92 79.4604 209.845C81.4826 210.5 82.7985 211.622 83.8765 213.592C92.5228 229.524 101.191 245.442 109.86 261.359L117.398 275.194L120.856 281.514L143.865 245.642C145.642 242.877 147.426 240.111 149.218 237.345C153.612 230.55 158.162 223.517 162.474 216.492C164.481 213.221 166.882 211.949 171.038 211.949C187.654 211.994 205.222 212.009 228.053 212.009C238.469 212.009 248.884 212.009 259.293 212.001L281.715 211.994C300.465 211.994 315.676 204.426 326.917 189.512C333.608 180.635 337.035 170.413 337.102 159.135C337.221 138.281 337.228 116.268 337.124 89.8678C337.072 77.0806 332.017 64.6353 322.887 54.8143C313.78 45.0157 301.625 38.9194 288.659 37.6333C285.403 37.3136 282.265 37.15 279.329 37.15C255.561 37.1352 231.8 37.1352 208.032 37.1277C181.283 37.1203 154.534 37.1203 127.792 37.098C126.647 37.098 124.982 37.0459 123.733 36.5776C121.487 35.7375 119.949 33.0982 120.372 30.8158C120.915 27.8941 122.967 26.0578 125.859 25.9017C126.312 25.8794 126.766 25.8719 127.219 25.8719H128.572C143.657 25.8719 158.749 25.8942 173.834 25.9165C188.926 25.9388 204.01 25.9611 219.102 25.9611C243.286 25.9611 263.114 25.9017 281.507 25.7827H281.968C296.8 25.7827 311.46 30.7118 323.259 39.6629C335.474 48.9337 343.763 61.5871 347.228 76.2702C348.187 80.3443 348.663 83.8682 348.685 87.0427C348.715 92.8565 348.774 98.6777 348.826 104.491C349.004 123.189 349.183 142.534 348.61 161.499C347.919 184.293 336.767 202.24 315.453 214.826C305.714 220.581 294.532 223.502 282.206 223.51C266.965 223.525 251.717 223.54 236.476 223.54C214.024 223.54 195.334 223.51 177.655 223.458C173.581 223.458 170.979 224.87 168.882 228.179C159.396 243.167 149.657 258.363 140.245 273.053C135.68 280.175 131.123 287.29 126.573 294.412C125.049 296.799 123.748 298.263 121.599 298.672C121.145 298.776 120.707 298.821 120.29 298.821Z" fill="url(#paint0_linear_52_52)"/>
<path d="M19.4865 91.4886C19.3304 91.4886 19.1222 91.3993 18.8769 91.2283C18.3193 90.8343 18.0368 90.641 18.7505 88.5148C19.821 85.3328 20.8767 82.1434 21.9324 78.954C23.6647 73.7202 25.4564 68.3079 27.3001 63.022C28.8019 58.7025 27.709 55.357 23.9472 52.7996C19.4865 49.7663 15.0184 46.5695 10.6915 43.4842C7.73261 41.3728 4.67704 39.1871 1.63634 37.0682C-0.237143 35.7598 -0.0735846 35.2617 0.0974082 34.7264C0.231229 34.3101 0.357615 33.916 2.51361 33.916H2.61026C4.61013 33.9235 6.60257 33.9309 8.60244 33.9309L19.6055 33.9235V33.8789C20.0813 33.8789 20.5571 33.8714 21.0329 33.8714C22.4157 33.864 23.7911 33.8566 25.1739 33.8566C27.3299 33.8566 29.0918 33.8789 30.7274 33.9235C30.8464 33.9235 30.9653 33.9309 31.0768 33.9309C35.0394 33.9309 37.6712 31.9682 38.8979 28.0949C40.6301 22.6231 42.4813 17.0844 44.2805 11.7167C45.3287 8.57195 46.3844 5.43459 47.4178 2.28238C48.1612 0.014863 48.5181 0.00743447 49.2244 0C49.2318 0 49.2392 0 49.2467 0C49.9158 0 50.2726 0.0223002 51.0012 2.21547C51.9157 4.97366 52.845 7.72442 53.7668 10.4826C55.6924 16.2146 57.6922 22.1473 59.536 27.9982C60.7924 31.998 63.4614 33.9383 67.6916 33.9383H67.8923C71.1486 33.8937 74.5908 33.8789 79.044 33.8789C81.1852 33.8789 83.3188 33.8863 85.46 33.8863C87.6011 33.8937 89.7422 33.8937 91.8834 33.8937C93.0654 33.8937 95.5485 33.8863 95.5485 33.8863C98.0614 33.8863 98.1952 34.258 98.3662 34.7264C98.5669 35.2988 98.7305 35.7524 96.6786 37.1798C93.4 39.4622 90.0991 41.8114 86.9097 44.0864C82.8877 46.9487 78.7244 49.9076 74.5982 52.7475C70.7992 55.357 69.6766 58.6951 71.1635 62.9551C72.9403 68.0328 74.6577 73.2444 76.3156 78.2775C77.4605 81.7643 78.6054 85.2436 79.7875 88.7229C80.4343 90.6262 80.1295 90.8418 79.6313 91.206C79.2299 91.496 79.0292 91.496 78.9622 91.496C78.5831 91.496 77.9437 91.1763 77.059 90.5444C72.1002 86.9907 67.1266 83.4668 62.1455 79.9428C59.6847 78.1957 57.2239 76.4561 54.7631 74.709C52.949 73.4154 51.2763 72.3522 49.269 72.3522C47.2617 72.3522 45.5517 73.4451 43.827 74.6569C36.6601 79.7124 29.1513 85.028 21.5087 90.4626C21.0477 90.7525 20.0143 91.4886 19.4865 91.4886Z" fill="url(#paint1_linear_52_52)"/>
<path d="M200.59 120.565C192.026 120.565 183.461 120.565 174.904 120.55C171.722 120.542 169.588 118.899 168.882 115.911C168.31 113.465 169.7 110.855 172.109 109.837C173.038 109.443 174.332 109.227 175.744 109.227C196.754 109.205 217.771 109.19 238.774 109.19C254.103 109.19 269.418 109.197 284.748 109.205C286.637 109.205 291.105 109.666 291.714 113.918C292.131 116.84 290.443 119.457 287.618 120.29C286.808 120.527 285.744 120.55 284.815 120.55C273.693 120.565 262.564 120.565 251.442 120.565H200.59Z" fill="url(#paint2_linear_52_52)"/>
<path d="M171.388 167.952C167.358 167.952 163.329 167.952 159.307 167.945C157.032 167.945 155.091 167.238 153.85 165.975C152.913 165.015 152.43 163.752 152.459 162.332C152.534 159.023 155.262 156.629 158.95 156.629H159.024C166.563 156.696 174.629 156.726 185.171 156.726C189.535 156.726 193.907 156.719 198.271 156.719C202.635 156.711 206.999 156.711 211.363 156.711C213.794 156.711 216.225 156.711 218.656 156.719C220.567 156.719 222.262 157.365 223.421 158.54C224.418 159.551 224.938 160.86 224.931 162.324C224.901 165.573 222.239 167.937 218.604 167.952C214.463 167.967 210.322 167.967 206.173 167.967L171.388 167.952Z" fill="url(#paint3_linear_52_52)"/>
<path d="M108.41 120.572C105.34 120.572 102.277 120.572 99.2063 120.557C95.4816 120.543 92.9465 118.297 92.8944 114.974C92.8721 113.368 93.3851 111.986 94.3813 110.974C95.4742 109.859 97.0652 109.257 98.9833 109.25C106.96 109.198 114.997 109.175 122.855 109.175C130.141 109.175 137.486 109.198 144.676 109.242C146.594 109.257 148.296 109.919 149.463 111.108C150.467 112.134 150.98 113.443 150.958 114.892C150.898 118.283 148.229 120.557 144.319 120.572C141.352 120.58 138.386 120.58 135.412 120.58L108.41 120.572Z" fill="url(#paint4_linear_52_52)"/>
<path d="M111.525 167.959C105.221 167.959 98.9164 167.952 92.6046 167.944C88.8427 167.937 86.2853 165.714 86.2406 162.406C86.2183 160.859 86.7165 159.528 87.6829 158.54C88.8278 157.372 90.5973 156.726 92.6789 156.711C95.1397 156.696 97.6005 156.688 100.061 156.688C101.987 156.688 109.57 156.703 111.436 156.703C113.339 156.703 115.235 156.703 117.138 156.696C119.034 156.696 120.93 156.688 122.826 156.688C125.279 156.688 127.74 156.696 130.193 156.718C132.245 156.733 133.992 157.38 135.107 158.525C136.074 159.514 136.565 160.874 136.542 162.458C136.483 165.788 133.977 167.952 130.156 167.959C123.941 167.952 117.733 167.959 111.525 167.959Z" fill="url(#paint5_linear_52_52)"/>
<path d="M283.306 167.967C281.507 167.967 279.708 167.967 277.901 167.96C276.147 167.952 274.392 167.952 272.638 167.952C272.638 167.952 263.909 167.96 262.207 167.96C259.932 167.96 257.665 167.952 255.39 167.937C251.591 167.915 249.226 165.744 249.226 162.272C249.226 158.912 251.546 156.734 255.137 156.711C260.854 156.674 266.683 156.659 272.459 156.659C278.317 156.659 284.302 156.674 290.235 156.711C293.856 156.734 296.093 158.882 296.086 162.324C296.078 165.699 293.759 167.9 290.175 167.937C287.886 167.96 285.596 167.967 283.306 167.967Z" fill="url(#paint6_linear_52_52)"/>
<defs>
<linearGradient id="paint0_linear_52_52" x1="174.5" y1="0" x2="174.5" y2="298.821" gradientUnits="userSpaceOnUse">
<stop stop-color="#747474"/>
<stop offset="0.795883" stop-color="white" stop-opacity="0"/>
</linearGradient>
<linearGradient id="paint1_linear_52_52" x1="174.5" y1="0" x2="174.5" y2="298.821" gradientUnits="userSpaceOnUse">
<stop stop-color="#747474"/>
<stop offset="0.795883" stop-color="white" stop-opacity="0"/>
</linearGradient>
<linearGradient id="paint2_linear_52_52" x1="174.5" y1="0" x2="174.5" y2="298.821" gradientUnits="userSpaceOnUse">
<stop stop-color="#747474"/>
<stop offset="0.795883" stop-color="white" stop-opacity="0"/>
</linearGradient>
<linearGradient id="paint3_linear_52_52" x1="174.5" y1="0" x2="174.5" y2="298.821" gradientUnits="userSpaceOnUse">
<stop stop-color="#747474"/>
<stop offset="0.795883" stop-color="white" stop-opacity="0"/>
</linearGradient>
<linearGradient id="paint4_linear_52_52" x1="174.5" y1="0" x2="174.5" y2="298.821" gradientUnits="userSpaceOnUse">
<stop stop-color="#747474"/>
<stop offset="0.795883" stop-color="white" stop-opacity="0"/>
</linearGradient>
<linearGradient id="paint5_linear_52_52" x1="174.5" y1="0" x2="174.5" y2="298.821" gradientUnits="userSpaceOnUse">
<stop stop-color="#747474"/>
<stop offset="0.795883" stop-color="white" stop-opacity="0"/>
</linearGradient>
<linearGradient id="paint6_linear_52_52" x1="174.5" y1="0" x2="174.5" y2="298.821" gradientUnits="userSpaceOnUse">
<stop stop-color="#747474"/>
<stop offset="0.795883" stop-color="white" stop-opacity="0"/>
</linearGradient>
</defs>
</svg>
