<svg width="332" height="47" viewBox="0 0 332 47" fill="none" xmlns="http://www.w3.org/2000/svg">
<path d="M0 23C0 22.4477 0.447715 22 1 22H136C136.552 22 137 22.4477 137 23V23C137 23.5523 136.552 24 136 24H0.999996C0.447712 24 0 23.5523 0 23V23Z" fill="url(#paint0_linear_279_152)"/>
<path d="M0 23C0 22.4477 0.447715 22 1 22H136C136.552 22 137 22.4477 137 23V23C137 23.5523 136.552 24 136 24H0.999996C0.447712 24 0 23.5523 0 23V23Z" fill="black" fill-opacity="0.2"/>
<path d="M195 23C195 22.4477 195.448 22 196 22H331C331.552 22 332 22.4477 332 23V23C332 23.5523 331.552 24 331 24H196C195.448 24 195 23.5523 195 23V23Z" fill="url(#paint1_linear_279_152)"/>
<path d="M195 23C195 22.4477 195.448 22 196 22H331C331.552 22 332 22.4477 332 23V23C332 23.5523 331.552 24 331 24H196C195.448 24 195 23.5523 195 23V23Z" fill="black" fill-opacity="0.2"/>
<path d="M165.987 47C165.623 47 165.259 46.8689 164.901 46.6069C157.545 41.2085 152.685 35.0109 150.048 27.6471C148.707 23.9062 148.018 20.0605 148.005 16.2279C147.998 13.8759 147.998 11.524 148.005 9.17201C148.005 8.29412 148.318 7.17382 149.767 6.83314C154.729 5.67354 159.499 3.61638 164.345 0.54376C164.92 0.17688 165.457 0 165.98 0C166.51 0 167.053 0.183438 167.64 0.550318C172.461 3.60984 177.212 5.66044 182.148 6.82004C183.33 7.09521 183.955 7.91413 183.962 9.19166C183.968 10.1089 183.968 11.0261 183.962 12.1398V14.0266C184.166 18.2982 183.547 22.74 182.168 26.9198C180.29 32.6196 177.085 37.5921 172.385 42.1126C170.954 43.4819 169.371 44.7594 167.838 45.9911L167.136 46.5545C166.759 46.8428 166.376 47 165.987 47ZM165.987 2.2406C165.597 2.2406 165.22 2.36507 164.799 2.62713C160.476 5.33942 155.897 7.34416 151.191 8.57582C150.336 8.79857 149.927 9.32923 149.94 10.2071C149.946 11.0719 149.946 11.9367 149.946 12.7949C149.94 13.8366 149.94 14.8849 149.959 15.9265C150.023 19.5888 150.629 23.1397 151.76 26.4678C154.065 33.2485 158.439 39.0793 165.124 44.2877C165.405 44.5104 165.686 44.6153 165.98 44.6153C166.421 44.6153 166.753 44.3597 166.932 44.2222C170.769 41.2609 173.822 38.0638 176.267 34.4409C180.252 28.5446 182.187 21.849 182.027 14.5376L182.021 13.1422C182.014 12.107 182.014 11.1767 182.033 10.2464C182.053 9.32923 181.644 8.79202 180.75 8.55617C176.057 7.33105 171.484 5.32632 167.142 2.60092C166.746 2.35852 166.363 2.2406 165.987 2.2406ZM159.971 27.9812C158.937 27.9746 158.496 27.5291 158.49 26.4874C158.477 23.369 158.483 20.2505 158.49 17.132C158.49 16.3917 158.656 16.1624 159.365 15.92C161.561 15.1731 163.79 14.7931 165.98 14.7931C168.17 14.7931 170.399 15.1731 172.596 15.92C173.311 16.1624 173.47 16.3917 173.47 17.2041C173.477 20.2767 173.477 23.3428 173.47 26.4154C173.47 27.5553 173.049 27.9812 171.919 27.9812H162.417C161.6 27.9812 160.789 27.9812 159.971 27.9812ZM165.061 19.4381C165.061 19.4512 165.061 19.4709 165.054 19.5036C164.99 19.8967 164.939 20.2767 164.888 20.6829L164.767 21.6394H167.193L167.13 21.1677C167.11 20.9973 167.085 20.8336 167.066 20.6763C167.015 20.2767 166.97 19.9032 166.906 19.5233C166.9 19.4774 166.893 19.4512 166.893 19.4381C166.9 19.4381 166.912 19.425 166.932 19.4053C167.27 19.1367 167.474 18.7502 167.513 18.3178C167.551 17.8789 167.404 17.4334 167.11 17.1058C166.823 16.7848 166.408 16.6013 165.974 16.6013C165.546 16.6013 165.144 16.7782 164.856 17.0861C164.55 17.4137 164.397 17.8592 164.428 18.3047C164.46 18.7502 164.677 19.1498 165.029 19.425C165.048 19.425 165.054 19.4316 165.061 19.4381ZM170.156 15.2714C170.163 14.8324 170.163 14.3738 170.144 13.9152C170.067 12.0874 169.23 10.7575 167.73 10.0761C167.123 9.80095 166.517 9.66337 165.923 9.66337C165.022 9.66337 164.167 9.97784 163.388 10.5937C162.372 11.3995 161.842 12.5525 161.81 14.0201C161.804 14.4394 161.804 14.8521 161.804 15.2714L160.188 15.6448C160.188 15.5072 160.188 15.3631 160.182 15.2255C160.163 14.0397 160.15 12.926 160.533 11.8712C161.402 9.48647 163.503 7.9993 166.018 7.9993C166.37 7.9993 166.734 8.03206 167.091 8.09103C169.703 8.52997 171.759 11.0654 171.772 13.8759C171.772 14.459 171.772 15.6514 171.772 15.6514L170.156 15.2714Z" fill="url(#paint2_linear_279_152)"/>
<path d="M165.987 47C165.623 47 165.259 46.8689 164.901 46.6069C157.545 41.2085 152.685 35.0109 150.048 27.6471C148.707 23.9062 148.018 20.0605 148.005 16.2279C147.998 13.8759 147.998 11.524 148.005 9.17201C148.005 8.29412 148.318 7.17382 149.767 6.83314C154.729 5.67354 159.499 3.61638 164.345 0.54376C164.92 0.17688 165.457 0 165.98 0C166.51 0 167.053 0.183438 167.64 0.550318C172.461 3.60984 177.212 5.66044 182.148 6.82004C183.33 7.09521 183.955 7.91413 183.962 9.19166C183.968 10.1089 183.968 11.0261 183.962 12.1398V14.0266C184.166 18.2982 183.547 22.74 182.168 26.9198C180.29 32.6196 177.085 37.5921 172.385 42.1126C170.954 43.4819 169.371 44.7594 167.838 45.9911L167.136 46.5545C166.759 46.8428 166.376 47 165.987 47ZM165.987 2.2406C165.597 2.2406 165.22 2.36507 164.799 2.62713C160.476 5.33942 155.897 7.34416 151.191 8.57582C150.336 8.79857 149.927 9.32923 149.94 10.2071C149.946 11.0719 149.946 11.9367 149.946 12.7949C149.94 13.8366 149.94 14.8849 149.959 15.9265C150.023 19.5888 150.629 23.1397 151.76 26.4678C154.065 33.2485 158.439 39.0793 165.124 44.2877C165.405 44.5104 165.686 44.6153 165.98 44.6153C166.421 44.6153 166.753 44.3597 166.932 44.2222C170.769 41.2609 173.822 38.0638 176.267 34.4409C180.252 28.5446 182.187 21.849 182.027 14.5376L182.021 13.1422C182.014 12.107 182.014 11.1767 182.033 10.2464C182.053 9.32923 181.644 8.79202 180.75 8.55617C176.057 7.33105 171.484 5.32632 167.142 2.60092C166.746 2.35852 166.363 2.2406 165.987 2.2406ZM159.971 27.9812C158.937 27.9746 158.496 27.5291 158.49 26.4874C158.477 23.369 158.483 20.2505 158.49 17.132C158.49 16.3917 158.656 16.1624 159.365 15.92C161.561 15.1731 163.79 14.7931 165.98 14.7931C168.17 14.7931 170.399 15.1731 172.596 15.92C173.311 16.1624 173.47 16.3917 173.47 17.2041C173.477 20.2767 173.477 23.3428 173.47 26.4154C173.47 27.5553 173.049 27.9812 171.919 27.9812H162.417C161.6 27.9812 160.789 27.9812 159.971 27.9812ZM165.061 19.4381C165.061 19.4512 165.061 19.4709 165.054 19.5036C164.99 19.8967 164.939 20.2767 164.888 20.6829L164.767 21.6394H167.193L167.13 21.1677C167.11 20.9973 167.085 20.8336 167.066 20.6763C167.015 20.2767 166.97 19.9032 166.906 19.5233C166.9 19.4774 166.893 19.4512 166.893 19.4381C166.9 19.4381 166.912 19.425 166.932 19.4053C167.27 19.1367 167.474 18.7502 167.513 18.3178C167.551 17.8789 167.404 17.4334 167.11 17.1058C166.823 16.7848 166.408 16.6013 165.974 16.6013C165.546 16.6013 165.144 16.7782 164.856 17.0861C164.55 17.4137 164.397 17.8592 164.428 18.3047C164.46 18.7502 164.677 19.1498 165.029 19.425C165.048 19.425 165.054 19.4316 165.061 19.4381ZM170.156 15.2714C170.163 14.8324 170.163 14.3738 170.144 13.9152C170.067 12.0874 169.23 10.7575 167.73 10.0761C167.123 9.80095 166.517 9.66337 165.923 9.66337C165.022 9.66337 164.167 9.97784 163.388 10.5937C162.372 11.3995 161.842 12.5525 161.81 14.0201C161.804 14.4394 161.804 14.8521 161.804 15.2714L160.188 15.6448C160.188 15.5072 160.188 15.3631 160.182 15.2255C160.163 14.0397 160.15 12.926 160.533 11.8712C161.402 9.48647 163.503 7.9993 166.018 7.9993C166.37 7.9993 166.734 8.03206 167.091 8.09103C169.703 8.52997 171.759 11.0654 171.772 13.8759C171.772 14.459 171.772 15.6514 171.772 15.6514L170.156 15.2714Z" fill="black" fill-opacity="0.2"/>
<defs>
<linearGradient id="paint0_linear_279_152" x1="68.5" y1="22" x2="68.5" y2="24" gradientUnits="userSpaceOnUse">
<stop stop-color="#C8C8C8"/>
<stop offset="1" stop-color="#F0F0F0"/>
</linearGradient>
<linearGradient id="paint1_linear_279_152" x1="263.5" y1="22" x2="263.5" y2="24" gradientUnits="userSpaceOnUse">
<stop stop-color="#C8C8C8"/>
<stop offset="1" stop-color="#F0F0F0"/>
</linearGradient>
<linearGradient id="paint2_linear_279_152" x1="166" y1="0" x2="166" y2="47" gradientUnits="userSpaceOnUse">
<stop stop-color="#C8C8C8"/>
<stop offset="1" stop-color="#F0F0F0"/>
</linearGradient>
</defs>
</svg>
