<svg width="258" height="329" viewBox="0 0 258 329" fill="none" xmlns="http://www.w3.org/2000/svg">
<path d="M128.903 329C126.295 329 123.686 328.083 121.124 326.248C68.4046 288.46 33.5788 245.076 14.6786 193.529C5.06833 167.343 0.125849 140.423 0.0343224 113.595C-0.0114408 97.1315 -0.0114408 80.6678 0.0343224 64.2041C0.0343224 58.0588 2.27676 50.2167 12.665 47.832C48.223 39.7148 82.408 25.3147 117.142 3.80632C121.261 1.23816 125.105 0 128.858 0C132.656 0 136.546 1.28406 140.756 3.85223C175.307 25.2689 209.355 39.6231 244.73 47.7403C253.196 49.6664 257.681 55.3989 257.727 64.3416C257.772 70.762 257.772 77.1824 257.727 84.9786V98.1864C259.191 128.087 254.752 159.18 244.867 188.439C231.413 228.337 208.44 263.145 174.758 294.788C164.507 304.373 153.158 313.316 142.175 321.937L137.141 325.882C134.441 327.899 131.695 329 128.903 329ZM128.903 15.6842C126.112 15.6842 123.412 16.5555 120.392 18.3899C89.4099 37.376 56.5977 51.4091 22.8702 60.0308C16.738 61.59 13.809 65.3046 13.9006 71.4499C13.9463 77.5034 13.9464 83.557 13.9464 89.5647C13.9006 96.8564 13.9005 104.194 14.0378 111.486C14.4955 137.122 18.843 161.978 26.9431 185.275C43.4636 232.74 74.8113 273.555 122.725 310.014C124.739 311.573 126.753 312.307 128.858 312.307C132.015 312.307 134.395 310.518 135.676 309.555C163.18 288.826 185.055 266.447 202.582 241.086C231.138 199.812 245.005 152.943 243.86 101.763L243.815 91.9952C243.769 84.7493 243.769 78.2372 243.906 71.725C244.044 65.3046 241.115 61.5442 234.708 59.8932C201.072 51.3174 168.305 37.2842 137.187 18.2064C134.349 16.5096 131.603 15.6842 128.903 15.6842ZM85.7946 195.868C78.381 195.822 75.2233 192.704 75.1775 185.412C75.086 163.583 75.1317 141.753 75.1775 119.924C75.1775 114.742 76.3673 113.137 81.447 111.44C97.1896 106.212 113.161 103.552 128.858 103.552C144.555 103.552 160.526 106.212 176.268 111.44C181.394 113.137 182.538 114.742 182.538 120.429C182.584 141.937 182.584 163.399 182.538 184.908C182.538 192.887 179.518 195.868 171.417 195.868H103.322C97.4641 195.868 91.6523 195.868 85.7946 195.868ZM122.268 136.067C122.268 136.159 122.268 136.296 122.222 136.525C121.764 139.277 121.398 141.937 121.032 144.78L120.163 151.476H137.553L137.095 148.174C136.958 146.981 136.775 145.835 136.637 144.734C136.271 141.937 135.951 139.323 135.493 136.663C135.448 136.342 135.402 136.159 135.402 136.067C135.448 136.067 135.539 135.975 135.676 135.837C138.102 133.957 139.566 131.251 139.841 128.225C140.115 125.152 139.063 122.033 136.958 119.74C134.898 117.493 131.924 116.209 128.812 116.209C125.746 116.209 122.863 117.448 120.803 119.603C118.607 121.896 117.508 125.014 117.737 128.133C117.966 131.251 119.522 134.049 122.039 135.975C122.176 135.975 122.222 136.021 122.268 136.067ZM158.787 106.9C158.833 103.827 158.833 100.617 158.695 97.4067C158.146 84.6117 152.151 75.3022 141.397 70.5328C137.049 68.6066 132.702 67.6436 128.446 67.6436C121.993 67.6436 115.861 69.8449 110.278 74.1557C103.001 79.7965 99.2031 87.8678 98.9743 98.1404C98.9285 101.075 98.9286 103.965 98.9286 106.9L87.3505 109.514C87.3505 108.551 87.3505 107.542 87.3047 106.579C87.1674 98.278 87.0758 90.4818 89.8216 83.0984C96.0454 66.4053 111.102 55.9951 129.132 55.9951C131.649 55.9951 134.258 56.2244 136.82 56.6372C155.538 59.7098 170.273 77.4576 170.365 97.1315C170.365 101.213 170.365 109.56 170.365 109.56L158.787 106.9Z" fill="url(#paint0_linear_52_5)"/>
<defs>
<linearGradient id="paint0_linear_52_5" x1="129" y1="0" x2="129" y2="329" gradientUnits="userSpaceOnUse">
<stop stop-color="#121212"/>
<stop offset="0.520833" stop-color="#FFC700"/>
</linearGradient>
</defs>
</svg>
