<svg width="508" height="617" viewBox="0 0 508 617" fill="none" xmlns="http://www.w3.org/2000/svg">
<path d="M425.543 617C423.578 607.553 417.694 601.581 412.167 595.485C410.253 593.383 407.26 591.887 404.674 591.689C397.579 591.158 390.443 591.516 383.317 591.417C377.575 591.331 369.584 582.317 370.419 575.467C372.322 559.974 366.927 549.625 357.948 539.176C350.364 530.348 343.157 525.526 332.662 526.96C325.8 527.9 318.766 527.306 311.823 527.022C309.798 526.935 307.68 525.822 305.827 524.673C300.239 521.186 297.908 515.609 298.926 507.943C300.799 493.897 297.622 482.224 288.125 473.223C279.115 464.679 275.95 453.291 277.548 439.541C278.159 434.299 277.863 428.834 277.558 423.504C277.385 420.611 276.662 417.569 275.563 414.985C274.107 411.585 274.382 408.605 276.906 407.022C278.454 406.045 281.783 406.07 282.577 407.307C283.717 409.062 283.656 412.388 283.391 414.948C283.065 418.237 281.508 421.402 281.406 424.654C281.121 433.903 281.05 443.201 281.447 452.438C281.579 455.566 282.851 459.115 284.501 461.575C289.326 468.735 294.803 475.251 299.587 482.447C301.226 484.92 302.153 488.592 302.397 491.832C302.835 497.544 302.499 503.343 302.519 509.118C302.539 518.07 306.255 522.632 313.625 522.657C323.795 522.694 333.975 522.422 344.134 522.843C346.71 522.942 349.774 524.413 351.667 526.515C358.295 533.872 364.667 541.6 370.755 549.612C372.485 551.887 373.381 555.547 373.788 558.737C374.297 562.756 373.911 566.948 373.911 571.065C373.921 581.723 378.339 587.003 387.267 587.053C391.848 587.077 396.469 587.634 400.989 587.003C408.095 586.002 413.205 589.179 417.816 595.56C421.023 599.999 423.884 605.13 429.778 606.032C433.829 606.651 433.626 612.289 429.574 616.988C428.251 617 426.897 617 425.543 617ZM427.884 615.566C429.024 613.414 430.215 612.165 430.124 611.077C430.022 609.878 428.729 608.839 427.956 607.739C426.988 608.926 425.624 609.94 425.207 611.362C425.003 612.066 426.53 613.513 427.884 615.566ZM283.564 411.77C281.864 410.225 280.907 408.691 279.981 408.716C279.034 408.753 277.476 410.237 277.385 411.239C277.293 412.339 278.606 414.626 279.258 414.602C280.439 414.565 281.579 413.18 283.564 411.77Z" fill="url(#paint0_linear_52_2)"/>
<path d="M508 527.974C506.147 529.037 503.887 531.436 502.544 530.843C500.813 530.064 499.775 526.911 498.523 524.71C497.505 522.904 496.873 520.703 495.652 519.183C488.332 510.02 480.728 501.18 473.592 491.807C471.739 489.371 470.446 485.464 470.294 482.138C469.856 472.691 470.202 463.195 470.11 453.724C470.029 445.279 460.938 434.497 454.036 434.497C442.676 434.484 431.315 434.521 419.944 434.472C412.706 434.435 406.262 426.497 406.211 417.656C406.201 415.183 406.222 412.71 406.201 410.237C406.13 401.755 402.139 396.116 395.309 397.031C386.452 398.218 380.151 394.113 374.297 386.67C368.22 378.929 361.542 371.894 355.118 364.562C351.586 360.531 345.702 359.591 341.671 362.905C339.024 365.081 336.337 365.848 334.616 362.546C333.629 360.667 333.608 356.735 334.606 354.905C336.367 351.702 339.167 352.506 341.773 354.583C343.218 355.733 345.173 356.883 346.761 356.661C352.065 355.931 355.638 358.824 359.18 363.177C365.37 370.793 372.099 377.755 378.329 385.322C382.563 390.453 387.206 392.988 393.273 392.184C397.273 391.653 400.897 392.283 404.542 395.906C409.988 401.322 410.324 407.863 410.09 415.232C409.785 424.926 413.938 430.107 421.899 430.132C433.432 430.169 444.966 429.885 456.49 430.342C459.157 430.453 462.15 432.444 464.308 434.596C471.851 442.113 475.526 451.708 473.724 463.85C471.373 479.702 475.954 491.906 486.347 501.823C493.473 508.623 498.248 519.108 507.969 521.792C508 523.856 508 525.909 508 527.974ZM337.894 363.288C339.218 361.161 340.531 359.974 340.49 358.849C340.449 357.662 339.126 356.549 338.362 355.399C337.375 356.487 335.94 357.39 335.553 358.738C335.319 359.566 336.683 361.075 337.894 363.288ZM507.44 525.662C505.76 524.079 504.824 522.509 503.887 522.509C502.971 522.509 501.414 524.03 501.322 525.031C501.22 526.119 502.503 528.382 503.165 528.37C504.325 528.37 505.475 527.01 507.44 525.662Z" fill="url(#paint1_linear_52_2)"/>
<path d="M508 182.998C497.739 186.819 491.926 197.329 484.963 205.984C483.192 208.185 481.98 211.956 481.858 215.072C481.471 225.149 481.746 235.251 481.685 245.341C481.644 253.279 474.671 261.959 468.085 262.021C452.825 262.145 437.555 261.885 422.296 262.244C419.557 262.305 416.707 264.247 414.192 265.941C412.167 267.313 410.253 269.316 408.817 271.554C401.814 282.522 392.713 285.737 381.546 284.587C371.61 283.573 361.542 284.104 351.545 284.512C347.677 284.673 343.88 286.701 339.991 287.196C338.108 287.431 335.268 286.812 334.362 285.279C333.415 283.684 333.527 279.69 334.576 278.256C335.644 276.797 338.474 276.599 340.429 276.883C343.768 277.366 347.026 279.393 350.334 279.468C364.24 279.789 378.145 279.752 392.051 279.492C394.342 279.443 396.999 278.206 398.8 276.463C403.697 271.715 408.013 266.089 412.981 261.465C415.322 259.288 418.61 257.533 421.491 257.458C436.405 257.063 451.339 257.298 466.263 257.261C473.663 257.236 478.081 251.758 478.092 242.744C478.102 233.681 478.295 224.605 478.03 215.554C477.888 210.485 478.845 206.528 482.021 202.967C486.5 197.947 490.725 192.556 494.756 187.004C496.436 184.692 497.678 181.687 498.523 178.745C500.08 173.304 503.572 172.451 507.99 176.803C508 178.881 508 180.933 508 182.998ZM334.138 281.755C335.889 283.363 336.866 284.958 337.772 284.908C338.759 284.859 339.686 283.264 340.643 282.349C339.757 281.137 339.024 279.381 337.925 278.936C337.222 278.639 335.991 280.296 334.138 281.755ZM503.541 184.111C504.865 181.959 506.341 180.476 506.117 179.734C505.699 178.324 504.315 177.335 503.327 176.173C502.574 177.335 501.342 178.435 501.23 179.684C501.139 180.748 502.35 181.972 503.541 184.111Z" fill="url(#paint2_linear_52_2)"/>
<path d="M85.5348 3.5925e-10C86.2372 0.877896 87.4996 1.69397 87.5708 2.63369C88.1511 11.0293 93.8721 14.8748 97.995 19.9567C113.58 39.1715 129.42 58.0648 144.996 77.2919C147.948 80.9395 150.869 82.72 155.175 82.5469C164.826 82.1636 174.497 82.3986 184.158 82.4356C191.945 82.4727 198.46 89.6196 197.707 98.7695C196.404 114.46 198.827 128.012 209.719 137.953C218.219 145.718 220.194 156.29 219.085 168.507C218.606 173.799 218.728 179.227 219.085 184.544C219.319 188.043 220.805 191.418 221.08 194.93C221.273 197.415 221.019 200.816 219.757 202.324C218.739 203.548 215.257 203.499 214.097 202.275C212.875 200.989 212.071 196.513 212.885 195.412C216.214 190.936 215.288 185.842 215.41 180.834C215.471 178.571 215.42 176.309 215.42 174.046C215.42 151.332 215.685 151.023 202.41 134.825C196.363 127.456 192.749 119.901 194.103 109.317C194.51 106.102 194.175 102.739 194.164 99.4495C194.134 91.9441 190.082 86.9364 183.811 86.8869C173.978 86.8004 164.144 86.5902 154.32 86.9735C149.668 87.159 146.431 85.2424 143.224 81.2857C125.369 59.3012 107.34 37.527 89.3115 15.7527C87.9271 14.0834 86.2576 12.3029 84.4659 11.6723C77.9508 9.38483 77.116 7.29519 80.455 0.0123648C82.1347 1.35042e-07 83.8348 -7.39519e-08 85.5348 3.5925e-10ZM216.794 202.547C218.097 200.408 219.38 199.233 219.349 198.108C219.309 196.921 218.006 195.808 217.252 194.658C216.265 195.758 214.84 196.673 214.443 198.033C214.198 198.837 215.583 200.346 216.794 202.547ZM83.7635 9.86705C84.8629 7.55485 86.0947 6.12054 85.8911 5.13136C85.6366 3.90725 84.1809 3.05409 83.2444 2.05254C82.4605 3.21483 81.1269 4.34002 81.0455 5.57649C80.9844 6.60277 82.3791 7.77741 83.7635 9.86705Z" fill="url(#paint3_linear_52_2)"/>
<path d="M182.244 4.22764e-06C184.605 1.23648 186.937 3.4374 189.329 3.52395C200.344 3.91962 211.368 3.68469 222.393 3.73415C229.845 3.77125 236.594 11.833 236.594 20.7357C236.604 45.8608 236.502 70.9983 236.665 96.1234C236.686 98.9549 237.408 102.776 239.007 104.433C244.494 110.108 243.964 117.564 243.974 124.834C244.015 146.015 243.771 167.184 243.832 188.364C243.842 190.343 245.634 192.247 245.848 194.299C246.112 196.846 246.346 200.482 245.176 201.842C244.046 203.152 240.412 203.177 239.159 201.904C237.958 200.68 238.009 197.032 238.213 194.522C238.447 191.616 239.994 188.797 240.015 185.941C240.208 163.301 240.279 140.649 240.086 118.009C240.055 115.029 238.773 111.654 237.246 109.205C234.466 104.742 233.001 100.179 233.041 94.4789C233.184 70.5902 233.082 46.6892 233.041 22.8006C233.021 13.8361 228.43 8.43275 221.131 8.46985C211.297 8.53167 201.453 8.27201 191.63 8.61822C188.647 8.71714 185.735 10.8933 182.743 11.1283C180.584 11.3014 177.357 10.6584 176.339 8.90261C174.212 5.21792 175.993 1.94127 179.2 4.09459e-06C180.208 4.13864e-06 181.226 4.18314e-06 182.244 4.22764e-06ZM180.615 10.7697C181.684 8.53167 182.865 7.17155 182.722 6.07109C182.569 4.9088 181.144 4.00618 180.279 2.99227C179.393 4.19165 178.029 5.27974 177.795 6.65223C177.642 7.50539 179.19 8.79133 180.615 10.7697ZM242.02 202.584C243.364 200.469 244.85 199.047 244.646 198.256C244.3 196.871 242.916 195.857 241.959 194.695C241.185 195.795 239.892 196.834 239.791 198.009C239.709 199.122 240.88 200.383 242.02 202.584Z" fill="url(#paint4_linear_52_2)"/>
<path d="M212.783 617C209.679 614.181 209.119 611.238 211.491 607.009C212.682 604.883 212.855 601.606 212.865 598.849C212.946 560.555 213.364 522.261 212.671 483.993C212.437 471.331 215.094 461.514 223.055 453.86C227.117 449.952 228.226 445.229 227.799 439.257C227.453 434.348 227.992 429.353 227.636 424.456C227.402 421.18 225.966 418.027 225.681 414.738C225.457 412.228 225.539 408.865 226.73 407.257C227.595 406.107 231.341 406.28 232.308 407.554C233.489 409.087 233.52 412.45 233.286 414.923C233.001 418.014 231.83 420.957 231.26 424.024C231.005 425.384 231.168 426.905 231.331 428.327C232.94 442.497 230.15 454.651 220.52 463.789C217.466 466.694 216.743 470.626 216.764 475.263C216.876 516.438 216.784 557.6 216.927 598.774C216.937 602.026 218.667 605.241 218.891 608.542C219.085 611.312 218.25 614.181 217.873 617C216.173 617 214.473 617 212.783 617ZM229.112 416.531C230.435 414.255 231.667 413.068 231.616 411.943C231.565 410.744 230.384 408.766 229.58 408.679C228.644 408.58 226.801 410.138 226.771 411.041C226.74 412.438 227.901 413.885 229.112 416.531ZM211.094 611.609C212.875 613.192 213.944 614.873 214.86 614.762C215.786 614.651 217.14 612.808 217.222 611.621C217.283 610.706 215.725 608.926 214.779 608.802C213.873 608.679 212.824 610.199 211.094 611.609Z" fill="url(#paint5_linear_52_2)"/>
<path d="M256.557 7.47597e-06C260.334 10.0649 267.724 16.0371 274.158 23.122C275.329 24.408 275.919 27.1282 275.929 29.1931C276.061 48.1483 276.092 67.091 275.899 86.0462C275.878 88.4202 274.779 91.2146 273.455 93.0322C269.964 97.7926 266.268 102.392 262.278 106.522C258.247 110.701 256.363 115.375 256.455 121.978C256.75 143.802 256.567 165.626 256.791 187.449C256.822 190.071 258.705 192.605 258.929 195.289C259.122 197.576 258.745 200.729 257.534 202.139C256.496 203.35 253.279 203.585 252.21 202.522C250.887 201.186 249.635 197.069 250.337 195.87C255.437 187.177 252.678 177.582 252.892 168.432C253.238 153.669 253.829 138.794 252.729 124.13C251.925 113.434 255.763 106.794 261.861 101.354C271.033 93.1559 273.618 82.6335 272.631 69.2548C271.735 57.1992 272.295 44.9705 272.519 32.816C272.6 28.4512 271.542 25.4837 268.6 22.9489C265.576 20.34 262.97 17.0139 260.049 14.2071C258.939 13.1313 257.463 12.6244 256.17 11.8207C254.144 10.5595 251.243 9.8547 250.317 7.82688C248.759 4.45131 250.754 1.64452 253.493 0.0123724C254.521 7.67037e-06 255.539 7.43147e-06 256.557 7.47597e-06ZM250.856 198.194C252.577 199.542 253.625 201.013 254.531 200.89C255.478 200.766 256.292 199.109 257.168 198.108C256.251 196.97 255.447 195.202 254.368 194.905C253.645 194.707 252.526 196.55 250.856 198.194ZM254.694 10.8191C255.875 8.65532 257.107 7.39412 257.015 6.29365C256.913 5.10664 255.58 4.08037 254.786 2.99227C253.839 4.1051 252.403 5.05718 252.118 6.36784C251.935 7.2581 253.381 8.65532 254.694 10.8191Z" fill="url(#paint6_linear_52_2)"/>
<path d="M250.591 393.606C231.077 393.606 211.572 393.619 192.057 393.594C184.656 393.582 177.836 385.458 177.836 376.605C177.815 329.001 177.826 281.396 177.836 233.805C177.836 225.347 184.992 216.383 191.935 216.37C230.944 216.321 269.964 216.321 308.973 216.358C315.895 216.37 323.154 225.322 323.164 233.706C323.194 281.508 323.205 329.322 323.205 377.124C323.205 385.124 316.242 393.557 309.635 393.569C289.957 393.619 270.279 393.606 250.591 393.606ZM250.439 387.028C250.439 387.041 250.439 387.041 250.439 387.053C269.608 387.053 288.766 387.115 307.935 387.016C314.053 386.991 318.278 381.303 318.278 373.402C318.288 327.875 318.288 282.336 318.278 236.809C318.278 227.956 314.063 222.973 306.632 222.973C269.322 222.961 232.003 222.961 194.694 222.973C187.161 222.973 183.211 227.771 183.211 236.97C183.201 282.497 183.201 328.036 183.221 373.563C183.221 382.515 187.008 387.004 194.49 387.016C213.129 387.041 231.779 387.028 250.439 387.028Z" fill="url(#paint7_linear_52_2)"/>
<path d="M429.452 207.01C425.543 189.069 432.811 177.236 443.307 166.009C454.739 153.768 465.204 140.179 475.801 126.837C477.664 124.488 478.998 120.519 479.059 117.255C479.374 100.167 479.283 83.0539 479.12 65.9658C479.099 63.5053 477.623 61.1065 477.45 58.6088C477.257 55.901 477.135 52.5625 478.254 50.5594C478.896 49.4095 483.192 49.3971 483.863 50.547C485.024 52.5501 485.014 55.9133 484.8 58.6336C484.576 61.5269 482.998 64.3213 482.968 67.1652C482.784 84.2656 483.059 101.366 482.723 118.454C482.652 121.916 481.308 126.157 479.344 128.606C465.133 146.299 450.535 163.536 436.283 181.18C434.511 183.369 433.259 187.128 433.168 190.219C432.822 202.571 433.056 214.936 433.015 227.301C432.984 236.191 426.785 244.636 419.74 243.462C405.305 241.063 394.118 246.812 385.139 260.327C380.711 266.992 375.02 269.836 367.731 268.883C362.031 268.129 356.187 268.389 350.456 268.859C347.117 269.131 343.88 271.134 340.531 271.567C338.464 271.839 335.644 271.418 334.331 269.86C333.395 268.735 333.629 264.197 334.708 263.035C335.99 261.638 338.759 261.798 340.826 262.058C343.055 262.342 345.193 264.111 347.392 264.185C355.526 264.457 363.68 264.531 371.813 264.123C374.277 263.999 377.117 262.726 379.031 260.834C384.559 255.406 389.496 249.075 395.095 243.758C397.528 241.446 400.928 239.987 404.023 239.505C408.522 238.8 413.164 239.332 417.745 239.319C425.482 239.307 429.391 234.509 429.442 224.927C429.472 218.955 429.452 212.982 429.452 207.01ZM485.044 54.8376C483.161 53.2549 482.102 51.8082 480.891 51.5857C480.321 51.4744 478.906 53.7371 478.906 54.9241C478.906 55.901 480.392 57.5949 481.278 57.6567C482.235 57.7186 483.263 56.2595 485.044 54.8376ZM341.762 266.682C340.042 265.31 339.034 263.851 338.118 263.938C337.161 264.036 336.306 265.619 335.41 266.546C336.357 267.721 337.151 269.403 338.291 269.873C338.912 270.12 340.103 268.29 341.762 266.682Z" fill="url(#paint8_linear_52_2)"/>
<path d="M38.4732 542.935C33.0575 544.481 27.6723 546.298 22.1955 547.424C20.5464 547.758 17.7266 546.818 17.0547 545.359C16.2098 543.529 16.281 539.745 17.3397 538.323C18.4188 536.877 21.7273 536.098 23.1118 537.062C31.9479 543.158 41.3338 538.892 50.4142 539.572C53.7736 539.832 59.3521 530.781 58.7209 526.441C56.1963 508.92 62.2127 496.543 72.8405 485.328C83.3156 474.286 92.6811 461.674 102.179 449.347C104.235 446.676 105.772 442.323 105.864 438.688C106.261 422.639 106.23 406.552 105.935 390.49C105.823 384.16 107.238 379.696 111.585 375.814C117.439 370.583 122.62 364.24 128.321 358.738C130.021 357.106 132.474 356.005 134.653 355.832C139.885 355.424 145.179 356.03 150.411 355.573C153.608 355.288 156.692 353.359 159.889 352.964C161.945 352.716 164.602 353.223 166.058 354.719C167.004 355.696 167.055 360.147 166.129 361.124C164.683 362.657 161.477 363.906 160.052 362.967C151.164 357.081 141.789 361.508 132.719 360.469C131.945 360.382 130.998 361.619 130.224 362.398C127.618 365.032 125.318 368.271 122.447 370.311C111.422 378.138 108.399 389.613 109.753 404.524C110.75 415.517 109.753 426.756 110.028 437.872C110.17 443.646 108.786 447.9 105.335 452.042C91.9583 468.129 78.7957 484.475 65.8062 501.019C63.9535 503.38 62.9151 507.312 62.5791 510.676C62.0498 515.955 62.2331 521.383 62.4977 526.713C62.7115 531.028 61.1438 533.835 58.9449 536.988C54.8424 542.873 50.0579 545.458 43.7973 544.357C42.1379 544.06 40.4073 544.308 38.7174 544.308C38.6462 543.875 38.5648 543.405 38.4732 542.935ZM20.2613 546.286C21.6153 544.32 22.959 543.232 22.959 542.132C22.959 540.932 21.7171 539.733 21.0248 538.533C19.9661 539.609 18.5512 540.462 18.0116 541.835C17.7571 542.515 19.1212 544.135 20.2613 546.286ZM165.874 357.749C164.195 356.364 163.136 354.818 162.291 354.967C161.273 355.152 160.449 356.797 159.543 357.81C160.52 358.973 161.375 360.605 162.546 361.087C163.116 361.322 164.286 359.406 165.874 357.749Z" fill="url(#paint9_linear_52_2)"/>
<path d="M390.555 207.653C387.674 194.176 393.334 185.384 400.989 176.68C412.492 163.598 423.303 149.601 434.094 135.629C436.038 133.119 437.311 128.89 437.413 125.403C437.789 111.814 437.779 98.2007 437.464 84.6119C437.331 78.9241 438.553 74.547 442.36 71.3198C445.74 68.4512 446.809 64.6305 446.656 59.6351C446.371 50.1637 446.809 40.6676 446.463 31.2086C446.32 27.3632 444.579 23.629 444.223 19.7589C443.999 17.2612 444.386 14.0216 445.607 12.204C446.361 11.0788 450.026 11.0417 450.86 12.1793C452.102 13.8732 452.55 17.0881 452.367 19.5363C452.072 23.4559 450.443 27.2519 450.331 31.1468C450.036 41.4342 450.036 51.7588 450.341 62.0462C450.484 66.8932 449.313 70.5532 446.096 73.1374C441.953 76.4635 440.904 80.989 441.047 86.8746C441.373 100.463 441.362 114.077 441.006 127.666C440.925 130.967 439.662 134.961 437.8 137.323C424.566 154.163 410.945 170.547 397.701 187.387C395.838 189.749 394.606 193.681 394.433 196.995C393.975 205.403 394.535 213.897 394.138 222.318C394.006 225.224 392.784 228.636 391.125 230.738C387.491 235.313 382.808 238.701 379.377 243.462C372.679 252.772 364.474 254.948 354.793 254.058C349.805 253.601 344.369 252.055 339.655 256.828C338.831 257.656 335.339 256.148 334.229 254.54C333.344 253.267 333.496 249.31 334.484 248.16C335.736 246.701 338.841 245.625 340.174 246.528C349.031 252.537 358.396 248.185 367.467 249.001C368.536 249.1 369.788 247.468 370.826 246.441C373.585 243.709 376.109 240.581 379.021 238.132C387.837 230.664 393.975 221.897 390.555 207.653ZM451.95 16.3709C450.138 14.9861 448.906 13.391 448.254 13.6754C447.114 14.1947 446.34 15.864 445.414 17.0633C446.33 18.0896 447.287 19.9814 448.163 19.932C449.191 19.8825 450.168 18.1514 451.95 16.3709ZM341.803 251.573C340.022 249.916 338.983 248.222 338.088 248.321C337.131 248.432 336.306 250.237 335.42 251.313C336.276 252.352 337.039 254.058 337.996 254.231C338.892 254.392 339.981 252.921 341.803 251.573Z" fill="url(#paint10_linear_52_2)"/>
<path d="M339.146 475.634C345.244 475.634 351.372 476.005 357.45 475.523C362.774 475.102 366.601 477.143 370.378 481.829C383.195 497.693 396.327 513.21 409.591 528.53C411.535 530.781 414.773 531.844 417.552 532.438C420.677 533.093 424.016 532.982 427.182 532.512C433.32 531.584 437.789 534.231 441.709 539.968C444.019 543.343 445.465 546.397 445.282 550.898C445.007 557.674 444.997 564.499 445.302 571.275C445.445 574.342 446.941 577.309 447.226 580.4C447.46 582.923 447.552 586.558 446.351 587.893C445.221 589.155 441.556 589.019 440.395 587.696C439.235 586.373 439.459 582.787 439.683 580.264C439.927 577.557 441.312 574.972 441.434 572.289C441.719 566.342 441.525 560.357 441.525 554.385C441.525 542.268 437.128 536.147 427.141 537.309C415.872 538.62 407.677 534.428 400.093 524.141C389.71 510.057 378.166 497.223 366.846 484.19C364.891 481.94 361.634 480.32 358.946 480.246C344.715 479.863 330.463 480.246 316.231 479.875C313.737 479.813 310.653 478.107 308.922 475.894C303.333 468.735 298.07 461.167 293.082 453.378C291.464 450.843 290.476 447.22 290.232 443.98C289.784 438.058 290.364 432.024 289.998 426.089C289.754 422.169 288.267 418.373 287.982 414.453C287.799 411.993 288.226 408.803 289.458 407.059C290.273 405.909 293.887 405.835 294.66 406.923C295.912 408.704 296.991 413.056 296.167 414.181C292.797 418.769 294.508 423.912 293.948 428.809C292.38 442.435 296.503 452.636 303.914 462.997C310.5 472.209 316.72 477.81 326.951 475.807C330.921 474.979 335.085 475.634 339.146 475.634ZM288.298 411.758C290.11 413.266 291.331 414.973 292.003 414.688C293.123 414.231 293.887 412.5 294.793 411.313C293.856 410.385 292.96 408.79 291.983 408.716C291.077 408.654 290.079 410.2 288.298 411.758ZM443.582 588.388C444.864 586.076 446.188 584.74 446.045 583.702C445.882 582.49 444.427 581.55 443.531 580.487C442.716 581.563 441.352 582.564 441.24 583.739C441.128 584.827 442.36 586.113 443.582 588.388Z" fill="url(#paint11_linear_52_2)"/>
<path d="M157.242 133.947C150.289 133.947 143.316 134.318 136.393 133.762C133.665 133.539 130.438 132.043 128.484 129.793C114.72 113.904 101.141 97.7679 87.7133 81.4465C84.9342 78.0585 82.1245 76.5377 78.2969 76.9086C75.5992 77.1683 72.8405 76.6242 70.1632 77.0199C63.7397 77.972 58.385 76.0554 54.9442 69.0817C53.4783 66.1018 52.0022 62.7263 51.7172 59.3754C51.198 53.2549 51.8801 46.9983 51.4627 40.8654C51.1879 36.8222 49.5489 32.9273 49.1417 28.884C48.8872 26.3616 49.2028 23.1591 50.3633 21.255C51.0453 20.1298 54.4963 20.0309 55.5958 21.119C56.9293 22.442 58.2323 26.5594 57.5605 27.6352C54.2011 33.0509 55.3718 39.0478 55.1784 44.8716C55.0562 48.7788 55.1479 52.6985 55.158 56.6181C55.1886 66.5346 60.2174 73.533 68.2086 72.2966C80.6994 70.3677 89.5966 75.8452 97.8118 86.9735C107.869 100.587 119.078 112.977 130.041 125.576C131.894 127.703 134.968 129.261 137.503 129.323C151.745 129.681 165.997 129.582 180.238 129.434C183.577 129.397 185.908 130.572 188.046 133.836C192.79 141.082 198.104 147.771 202.766 155.091C204.477 157.786 205.617 161.533 205.902 164.945C206.401 170.856 205.729 176.915 206.156 182.837C206.441 186.881 208.09 190.763 208.508 194.819C208.762 197.341 208.437 200.556 207.266 202.46C206.563 203.598 203.102 203.721 202.013 202.633C200.69 201.323 199.397 197.193 200.079 196.092C203.672 190.268 201.748 183.752 202.532 177.632C204.08 165.539 199.346 157.193 193.625 147.833C186.438 136.086 178.243 131.857 166.892 133.848C163.737 134.417 160.459 133.947 157.242 133.947ZM208.416 198.034C206.675 196.438 205.535 194.658 204.802 194.893C203.713 195.227 202.909 196.97 201.993 198.108C202.878 199.085 203.723 200.741 204.68 200.853C205.596 200.952 206.635 199.455 208.416 198.034ZM53.4376 30.6522C54.5065 28.2534 55.6263 26.8933 55.4736 25.7805C55.3107 24.6305 53.9263 22.9613 53.0712 22.9489C52.1855 22.9366 50.4855 24.816 50.5771 25.595C50.7501 27.0293 51.9921 28.2658 53.4376 30.6522Z" fill="url(#paint12_linear_52_2)"/>
<path d="M91.3068 553.445C88.3241 539.708 94.147 530.744 101.792 521.767C115.81 505.322 129.054 487.924 142.776 471.096C145.382 467.906 146.451 464.666 146.39 460.203C146.329 455.17 145.983 449.495 147.683 445.217C150.371 438.478 154.758 433.124 162.2 435.041C167.88 436.5 172.329 433.99 175.861 428.327C177.795 425.235 180.574 422.935 182.508 419.832C184.341 416.877 185.338 413.167 187.13 410.175C188.291 408.234 190.266 405.65 191.772 405.749C193.431 405.86 195.895 408.456 196.272 410.447C196.608 412.265 194.724 416.493 193.625 416.592C188.484 417.075 186.255 421.934 183.119 425.446C182.244 426.422 181.317 427.374 180.635 428.537C175.494 437.241 168.939 441.285 159.828 439.603C155.114 438.738 149.414 445.266 150.177 451.102C151.938 464.605 146.563 473.272 139.173 481.989C125.44 498.2 112.44 515.325 98.9519 531.844C95.959 535.516 94.6865 539.288 94.8901 544.419C95.1955 552.023 95.3279 559.689 94.8087 567.257C94.5746 570.768 93.017 574.391 91.4188 577.495C87.6319 584.852 81.9312 587.498 74.8969 586.162C73.5735 585.915 72.1279 586.459 70.8452 586.076C61.2863 583.244 56.1862 591.096 50.9334 598.354C50.0681 599.553 50.4855 602.15 49.61 603.312C48.0627 605.352 46.0776 607.763 44.0619 608.11C42.8913 608.307 39.9391 604.437 40.1834 603.003C40.5804 600.666 42.7691 598.564 44.5099 596.821C47.6555 593.655 51.4627 591.331 54.1808 587.745C57.4281 583.454 60.7672 581.093 65.6535 581.736C69.0027 582.181 72.4638 581.464 75.813 581.909C80.9946 582.589 85.3007 581.018 88.0289 575.529C89.4948 572.573 90.696 569.161 91.1439 565.785C91.714 561.767 91.3068 557.563 91.3068 553.445ZM48.592 602.682C46.9327 600.975 45.8333 599.108 45.1512 599.306C44.0212 599.64 43.1662 601.309 42.1991 602.422C43.0542 603.423 43.838 605.068 44.7949 605.229C45.7009 605.377 46.7902 603.98 48.592 602.682ZM191.874 416.395C192.963 414.033 194.093 412.698 193.961 411.585C193.818 410.447 192.434 408.728 191.599 408.728C190.693 408.728 188.993 410.558 189.074 411.362C189.217 412.784 190.469 414.033 191.874 416.395Z" fill="url(#paint13_linear_52_2)"/>
<path d="M259.56 550.49C259.55 538.336 259.784 526.169 259.417 514.027C259.305 510.428 257.544 506.892 256.516 503.343C255.152 498.645 252.648 493.971 252.577 489.248C252.23 467.436 252.638 445.612 252.546 423.789C252.536 420.784 250.938 417.829 250.663 414.775C250.439 412.302 250.378 408.605 251.559 407.492C252.882 406.231 256.414 406.268 257.626 407.591C258.796 408.864 258.593 412.524 258.349 415.059C258.063 418.051 256.669 420.92 256.516 423.888C256.109 431.888 255.946 439.925 255.987 447.949C256.058 462.54 256.211 477.13 256.638 491.708C256.72 494.552 257.666 497.928 259.183 500.017C262.329 504.357 263.286 508.969 263.235 514.645C263.021 538.138 263.082 561.631 263.174 585.111C263.215 595.856 267.49 600.913 276.153 600.926C285.651 600.938 295.159 601.161 304.647 600.802C307.833 600.678 310.948 598.651 314.165 598.218C316.048 597.971 318.878 598.391 319.784 599.875C320.751 601.457 320.721 605.377 319.713 606.898C318.746 608.357 314.939 609.272 314.175 608.32C311.141 604.524 307.68 605.649 304.209 605.674C294.029 605.723 283.849 605.798 273.669 605.662C266.431 605.563 259.611 596.994 259.58 588.203C259.529 575.628 259.57 563.065 259.56 550.49ZM258.42 412.166C256.71 410.348 255.722 408.531 254.969 408.667C253.839 408.877 252.475 410.237 251.996 411.535C251.762 412.166 253.238 414.614 254.063 414.713C255.152 414.837 256.353 413.464 258.42 412.166ZM312.689 603.399C314.389 604.883 315.6 606.601 316.211 606.329C317.351 605.835 318.135 604.165 319.072 602.978C318.125 602.051 317.229 600.481 316.231 600.394C315.356 600.32 314.368 601.89 312.689 603.399Z" fill="url(#paint14_linear_52_2)"/>
<path d="M87.7641 365.786C97.4045 368.926 103.869 362.707 109.997 354.979C113.275 350.837 116.868 347.004 120.615 343.492C122.203 342.008 124.524 341.056 126.539 340.982C134.5 340.698 142.481 341.143 150.442 340.722C153.597 340.549 156.651 338.497 159.828 337.94C161.762 337.607 164.551 337.668 165.671 339.066C166.74 340.401 166.953 344.37 166.058 345.953C165.152 347.548 161.579 348.97 160.662 348.117C156.692 344.395 152.315 345.372 147.999 345.248C144.945 345.174 141.809 345.804 138.857 345.124C127.578 342.528 119.23 348.401 112.308 358.268C105.823 367.517 98.0967 372.376 87.8761 370.2C85.9012 369.78 83.8144 370.126 81.7784 370.138C75.4567 370.175 70.6619 375.801 70.6212 383.492C70.55 396.055 70.8452 408.63 70.438 421.167C70.326 424.63 68.9517 428.821 66.9768 431.282C49.5692 452.945 31.8562 474.237 14.3672 495.813C12.6162 497.977 11.9953 501.464 10.3869 503.863C9.07365 505.829 7.16993 508.03 5.3172 508.376C4.05489 508.611 1.17401 505.742 1.21473 504.357C1.28599 501.996 2.89442 497.878 4.18726 497.693C9.9898 496.827 12.718 491.399 16.2097 487.195C32.0903 468.042 47.92 448.827 63.536 429.365C65.4091 427.041 66.6918 423.059 66.8038 419.77C67.1906 408.048 66.9463 396.302 66.9565 384.568C66.9769 373.143 72.9218 365.81 82.1652 365.786C84.0383 365.786 85.9012 365.786 87.7641 365.786ZM165.864 343.059C164.266 341.341 163.095 339.375 162.535 339.61C161.365 340.092 160.51 341.724 159.522 342.899C160.418 343.875 161.232 345.458 162.22 345.631C163.085 345.767 164.144 344.345 165.864 343.059ZM5.73461 507.856C7.06817 505.433 8.26939 504.122 8.38137 502.688C8.44245 501.909 6.661 500.166 5.74481 500.203C4.93042 500.227 3.61721 502.033 3.51541 503.183C3.41361 504.295 4.58428 505.581 5.73461 507.856Z" fill="url(#paint15_linear_52_2)"/>
<path d="M55.6975 347.375C62.9965 347.362 70.3159 347.807 77.564 347.164C80.8113 346.88 84.303 345.05 87.021 342.763C90.8894 339.498 94.4218 335.467 97.5878 331.214C101.222 326.342 105.365 324.858 110.669 324.995C124.402 325.365 138.144 325.242 151.887 325.019C154.432 324.982 157.14 323.956 159.451 322.596C162.24 320.951 164.714 321.1 166.017 324.216C166.801 326.095 166.679 330.386 165.732 331.066C164.001 332.314 161.314 332.079 159.085 331.758C157.038 331.461 155.084 329.569 153.089 329.545C138.165 329.359 123.231 329.335 108.307 329.594C106.19 329.631 103.848 330.991 102.026 332.5C99.3896 334.688 96.7327 337.186 94.7781 340.215C88.4259 350.095 80.3125 352.741 70.2446 351.925C58.2527 350.948 46.1692 351.665 34.1264 351.715C27.5909 351.739 22.6944 357.674 22.674 365.551C22.6435 378.534 22.4907 391.517 22.8063 404.487C22.8776 407.393 24.0381 411.053 25.7585 412.945C29.749 417.359 32.7216 423.64 39.1247 424.37C40.3463 424.506 42.1074 428.364 42.087 430.478C42.0667 432.172 39.8576 434.855 38.3306 435.189C36.8444 435.51 33.7293 433.693 33.5156 432.32C32.2736 424.085 26.0842 420.982 22.5111 415.269C20.8212 412.561 19.2637 408.951 19.1721 405.699C18.8057 391.702 18.9889 377.681 19.0296 363.671C19.05 355.869 25.7788 347.523 32.2838 347.412C40.0918 347.276 47.8998 347.387 55.6975 347.375ZM162.556 332.253C163.584 329.928 164.694 328.543 164.541 327.43C164.388 326.305 162.943 324.636 162.118 324.673C161.202 324.722 159.532 326.602 159.644 327.393C159.828 328.815 161.12 330.002 162.556 332.253ZM37.6181 434.323C38.8397 432.259 40.3158 430.762 40.102 429.909C39.7559 428.561 38.2798 427.634 37.2719 426.534C36.5288 427.684 35.2258 428.821 35.2055 429.996C35.1851 431.133 36.4474 432.333 37.6181 434.323Z" fill="url(#paint16_linear_52_2)"/>
<path d="M265.373 450.781C265.373 442.534 265.627 434.286 265.261 426.064C265.088 422.206 263.418 418.484 263.052 414.602C262.817 412.079 263.062 408.691 264.314 407.034C265.179 405.872 268.925 406.058 269.903 407.331C271.114 408.902 271.226 412.265 271.022 414.775C270.778 417.878 269.149 420.871 269.119 423.925C268.925 441.643 268.885 459.362 269.18 477.081C269.231 480.184 270.778 483.473 272.193 486.255C273.598 489.013 275.44 491.683 277.558 493.637C286.699 502.07 288.186 513.396 287.514 526.441C286.801 540.19 287.32 554.039 287.371 567.85C287.402 575.776 292.319 581.798 298.752 581.835C307.405 581.884 316.068 582.119 324.701 581.674C327.083 581.55 330.056 580.017 331.613 577.89C335.308 572.858 340.897 569.322 341.192 561.111C341.243 559.838 344.501 557.464 345.814 557.859C347.555 558.379 349.632 560.889 350.059 562.991C350.395 564.598 348.552 568.493 347.412 568.666C340.755 569.655 338.108 576.406 334.341 581.365C331.827 584.678 329.292 586.323 325.556 586.237C316.231 586.014 306.896 586.199 297.572 586.15C290.486 586.1 283.727 577.915 283.717 569.346C283.686 550.799 283.839 532.252 283.564 513.717C283.513 510.564 282.21 507.016 280.622 504.431C277.69 499.671 274.402 495.108 270.748 491.152C266.441 486.49 264.874 481.248 265.322 474.286C265.821 466.509 265.434 458.633 265.434 450.806C265.413 450.781 265.393 450.781 265.373 450.781ZM345.397 568.444C346.567 566.181 347.748 564.907 347.646 563.794C347.545 562.645 346.231 560.864 345.387 560.815C344.481 560.753 342.668 562.509 342.74 563.275C342.872 564.709 344.063 566.02 345.397 568.444ZM263.103 411.251C264.945 412.908 265.963 414.404 267.144 414.639C267.765 414.762 269.302 412.698 269.292 411.622C269.292 410.583 267.918 408.864 267.001 408.716C266.075 408.555 264.976 409.953 263.103 411.251Z" fill="url(#paint17_linear_52_2)"/>
<path d="M47.6555 318.614C57.6623 318.614 67.6793 318.948 77.6556 318.416C80.903 318.243 84.5576 316.537 87.1535 314.138C90.3398 311.195 93.3835 309.872 97.3333 309.91C115.647 310.083 133.961 310.07 152.264 309.885C154.616 309.86 156.926 307.968 159.308 307.709C161.538 307.461 164.317 307.449 165.956 308.871C166.923 309.699 166.923 314.893 165.966 315.684C164.307 317.081 161.538 317.044 159.298 316.797C156.916 316.525 154.616 314.62 152.264 314.596C133.95 314.398 115.637 314.336 97.3333 314.658C94.5848 314.707 91.4392 316.265 89.2301 318.33C85.6977 321.619 82.2264 323.313 77.6862 323.251C58.3647 322.991 39.0331 323.127 19.7015 323.14C10.2444 323.14 6.42696 327.863 6.42696 339.535C6.42696 350.862 6.24368 362.2 6.52872 373.514C6.62034 377.186 8.30004 380.759 8.58507 384.456C8.77849 386.929 8.35096 390.12 7.12937 391.875C6.33534 393.025 2.68073 393.099 1.9376 392.011C0.705833 390.206 0.247783 387.016 0.451381 384.531C0.777137 380.648 2.53826 376.889 2.6197 373.044C2.91492 360.283 2.70114 347.511 2.74186 334.738C2.7724 327.146 9.77616 318.701 16.108 318.664C26.6239 318.577 37.1397 318.614 47.6555 318.614ZM0.553137 387.758C2.48731 388.982 3.62748 390.317 4.57421 390.132C5.45986 389.959 6.80363 388.141 6.75273 387.152C6.68147 386.014 5.11372 383.999 4.50292 384.16C3.32206 384.444 2.35498 386.002 0.553137 387.758ZM165.895 311.764C164.144 310.503 163.014 309.032 162.179 309.254C161.161 309.514 160.398 311.195 159.522 312.246C160.55 313.347 161.477 314.942 162.668 315.338C163.258 315.535 164.347 313.545 165.895 311.764Z" fill="url(#paint18_linear_52_2)"/>
<path d="M213.099 68.7108C213.099 77.9843 212.875 87.2703 213.231 96.5191C213.343 99.4866 214.667 102.677 216.102 105.199C218.016 108.562 220.316 111.752 222.912 114.337C230.323 121.694 232.166 130.98 231.596 142.244C230.893 156.204 231.26 170.25 231.525 184.259C231.596 187.907 233.306 191.468 233.662 195.165C233.886 197.465 233.591 200.816 232.39 202.04C231.178 203.289 227.9 203.486 226.72 202.336C225.478 201.125 225.081 197.7 225.315 195.387C225.742 191.097 227.554 186.93 227.626 182.689C227.911 165.601 227.829 148.488 227.646 131.4C227.615 129.001 226.669 126.232 225.427 124.327C222.485 119.814 219.421 115.289 215.847 111.567C210.605 106.102 209.017 99.7092 209.261 91.4495C209.75 74.9921 209.424 58.4852 209.393 42.003C209.383 33.9412 204.293 27.7341 197.707 27.7094C188.209 27.6723 178.711 27.6599 169.213 27.7217C165.406 27.7465 161.599 26.9922 158.158 30.6522C157.15 31.7155 153.394 30.6151 152.101 29.0571C151.134 27.8825 151.327 23.357 152.396 22.1452C153.669 20.7109 156.478 20.7727 158.545 21.0324C161.11 21.3539 163.594 23.2086 166.129 23.2704C177.317 23.5301 188.515 23.3446 199.712 23.4188C205.698 23.4559 213.028 32.408 213.079 39.6908C213.14 49.3476 213.089 59.0292 213.099 68.7108ZM155.918 30.578C157.11 28.3894 158.341 27.1159 158.25 26.003C158.148 24.8407 156.774 23.8268 155.959 22.7511C155.023 23.8887 153.618 24.8778 153.323 26.2256C153.15 27.0911 154.605 28.476 155.918 30.578ZM229.682 202.485C230.751 200.197 231.881 198.85 231.728 197.786C231.565 196.636 230.191 195.734 229.336 194.72C228.511 195.82 227.117 196.859 227.025 198.033C226.954 199.097 228.318 200.321 229.682 202.485Z" fill="url(#paint19_linear_52_2)"/>
<path d="M337.436 242.126C336.642 241.496 334.565 240.741 334.117 239.258C333.507 237.254 333.934 234.633 334.301 232.37C334.698 229.922 335.97 227.61 336.113 225.174C336.479 219.202 342.801 210.893 347.85 210.275C354.518 209.459 357.999 204.834 358.03 196.661C358.061 187.19 357.837 177.706 358.173 168.247C358.274 165.502 359.394 162.238 360.941 160.235C367.202 152.123 373.992 144.618 380.192 136.445C382.034 134.009 383.551 130.139 383.581 126.899C383.836 97.0384 383.775 67.1652 383.643 37.3044C383.632 34.646 382.716 31.7897 381.668 29.391C380.212 26.0772 380.344 23.0355 382.879 21.3663C384.426 20.34 387.989 20.2658 388.549 21.3539C389.639 23.493 389.659 26.7944 389.404 29.5146C389.119 32.5811 387.409 35.5239 387.389 38.5285C387.226 68.3893 387.399 98.2625 387.134 128.123C387.104 131.561 385.638 135.703 383.714 138.275C377.677 146.349 370.958 153.656 364.84 161.644C363.201 163.783 362.02 167.221 361.878 170.163C361.481 178.374 361.247 186.683 361.878 194.856C362.489 202.658 359.282 207.752 355.281 212.562C354.202 213.86 352.37 214.664 350.802 214.862C341.009 216.074 337.853 222.676 342.251 233.087C344.002 237.217 341.925 241.904 337.436 242.126ZM341.864 236.339C340.103 234.707 338.953 232.927 338.261 233.162C337.141 233.533 336.316 235.227 335.37 236.364C336.255 237.353 337.08 239.01 338.047 239.146C338.963 239.27 340.022 237.774 341.864 236.339ZM389.72 26.003C387.898 24.408 386.91 22.8624 386.004 22.9242C385.027 22.986 383.48 24.4574 383.368 25.5084C383.256 26.5718 384.569 28.8469 385.261 28.8469C386.432 28.8593 387.592 27.4744 389.72 26.003Z" fill="url(#paint20_linear_52_2)"/>
<path d="M0.950197 176.816C1.03164 172.129 5.17486 169.941 8.92105 172.08C11.5169 173.564 14.4589 174.887 17.2685 174.924C36.4372 175.171 55.6467 175.888 74.7646 174.751C87.2553 174.009 96.0608 182.578 94.0045 198.071C93.3835 202.744 94.4626 206.924 97.934 209.174C100.591 210.893 103.767 212.587 106.648 212.426C113.499 212.043 118.874 213.984 123.801 220.352C130.52 229.044 138.124 236.71 145.372 244.797C149.241 249.1 154.351 249.891 158.749 246.479C161.426 244.401 164.134 243.696 165.783 247.121C166.699 249.026 166.658 252.883 165.63 254.627C163.767 257.792 161.059 256.951 158.525 254.602C157.303 253.465 155.41 252.599 153.944 252.822C148.905 253.576 145.301 251.041 141.83 246.948C134.887 238.788 127.415 231.258 120.686 222.85C116.98 218.225 113.092 216.457 108.063 217.335C102.474 218.312 98.2394 216.049 94.0249 211.152C89.8613 206.318 90.2075 201.001 90.3602 195.35C90.4925 190.454 90.4925 185.632 86.4816 182.924C84.1097 181.329 81.3916 179.523 78.8161 179.486C57.9473 179.214 37.0888 179.251 16.22 179.462C13.6954 179.486 11.0588 180.723 8.69704 181.996C5.06282 183.962 0.868758 181.341 0.950197 176.816ZM5.9078 181.514C7.25155 179.412 8.7378 178.015 8.5342 177.211C8.19827 175.826 6.82394 174.813 5.88739 173.65C5.08318 174.726 3.73946 175.74 3.62748 176.915C3.53586 178.015 4.73711 179.301 5.9078 181.514ZM162.535 255.579C163.574 253.23 164.683 251.87 164.541 250.732C164.398 249.619 162.973 247.95 162.149 247.975C161.253 248.012 159.594 249.866 159.695 250.67C159.879 252.08 161.131 253.304 162.535 255.579Z" fill="url(#paint21_linear_52_2)"/>
<path d="M158.748 495.739C162.169 494.119 165.793 492.932 168.969 490.781C172.166 488.617 173.367 484.685 172.736 480.172C171.402 470.626 174.344 463.356 180.024 456.741C186.865 448.778 193.055 439.986 199.539 431.566C202.919 427.177 203 421.217 200.822 415.875C199.855 413.501 200.69 410.064 200.71 407.109C202.838 407.146 205.433 406.268 206.991 407.43C209.831 409.532 209.21 412.833 207.347 415.974C206.523 417.359 205.81 419.424 205.993 421.007C206.818 427.943 204.059 432.518 200.221 437.105C194.195 444.326 188.932 452.487 182.793 459.572C177.703 465.445 175.362 471.949 176.4 480.32C177.052 485.625 175.362 489.569 172.216 493.39C168.969 497.334 165.691 499.597 161.059 498.731C149.729 496.617 144.263 505.037 144.7 518.676C145.433 541.909 144.812 565.204 144.995 588.462C145.016 591.702 146.685 594.879 146.991 598.156C147.235 600.703 147.296 604.388 146.075 605.699C144.883 606.984 141.198 606.923 140.017 605.6C138.826 604.277 139.02 600.604 139.264 598.057C139.559 594.954 141.107 591.949 141.127 588.895C141.29 564.4 141.219 539.893 141.219 515.387C141.219 501.402 146.94 494.342 158.748 495.739ZM207.52 411.597C205.8 410.126 204.802 408.617 203.917 408.704C202.929 408.803 202.044 410.373 201.117 411.3C202.064 412.487 202.858 414.157 204.008 414.676C204.599 414.936 205.82 413.155 207.52 411.597ZM146.848 601.495C145.26 600.06 144.273 598.478 143.295 598.49C142.42 598.502 140.73 600.542 140.873 601.21C141.168 602.583 142.318 604.289 143.387 604.623C144.11 604.858 145.28 602.991 146.848 601.495Z" fill="url(#paint22_linear_52_2)"/>
<path d="M497.291 249.879C491.651 253.836 490.216 259.461 490.766 266.41C491.356 273.916 491.061 280.902 485.299 286.318C482.174 289.26 479.445 291.09 475.404 291.041C457.773 290.818 440.131 290.781 422.489 291.103C419.567 291.152 416.218 292.636 413.877 294.775C410.161 298.175 406.517 299.771 401.814 299.696C384.182 299.4 366.54 299.461 348.899 299.696C346.058 299.733 343.269 301.749 340.388 302.169C338.485 302.441 335.716 302.293 334.688 300.883C333.649 299.449 333.425 295.183 334.372 294.058C335.665 292.512 338.464 292.141 340.521 292.401C343.544 292.784 346.476 294.936 349.459 294.973C366.927 295.233 384.396 294.973 401.865 295.196C405.865 295.245 409.255 294.281 411.943 290.757C414.722 287.121 418.091 286.33 422.041 286.367C439.846 286.54 457.661 286.466 475.465 286.429C481.98 286.417 487.172 280.061 487.233 272.16C487.253 269.687 487.233 267.214 487.243 264.741C487.243 255.146 493.249 244.327 500.721 241.384C502.228 240.791 505.007 241.755 505.974 243.214C506.941 244.673 507.114 248.222 506.28 249.78C505.435 251.363 502.951 252.166 501.149 252.29C499.897 252.389 498.563 250.732 497.291 249.879ZM502.788 251.387C503.826 249.298 505.211 247.666 504.936 246.812C504.529 245.539 502.961 244.809 501.882 243.857C501.18 245.032 499.836 246.281 499.938 247.344C500.039 248.556 501.434 249.594 502.788 251.387ZM338.169 301.526C339.33 299.449 340.582 298.2 340.48 297.137C340.368 295.937 339.034 294.911 338.24 293.811C337.294 294.985 335.95 295.999 335.583 297.384C335.38 298.126 336.866 299.536 338.169 301.526Z" fill="url(#paint23_linear_52_2)"/>
<path d="M293.418 204.067C289.112 204.018 286.883 199.047 288.532 195.029C289.407 192.902 290.904 190.528 290.68 188.488C289.947 181.762 292.543 177.224 296.075 172.748C302.417 164.723 308.21 156.018 314.867 148.426C319.275 143.394 320.884 138.065 320.436 131.017C320.151 126.454 319.937 122.028 323.042 117.799C327.042 112.346 331.298 110.368 337.212 110.652C347.728 111.159 351.881 105.83 351.881 93.2301C351.881 69.329 351.973 45.4157 351.78 21.5146C351.749 18.102 349.978 14.7635 349.621 11.3014C349.367 8.79134 349.448 5.37867 350.65 3.75889C351.586 2.49769 355.302 2.38641 356.299 3.57342C357.531 5.04482 357.653 8.45749 357.46 10.9428C357.205 14.2565 355.597 17.4714 355.566 20.748C355.393 45.2673 355.475 69.7989 355.475 94.3182C355.475 108.043 349.54 115.079 338.098 115.215C335.278 115.252 331.959 114.93 329.771 116.562C326.228 119.196 323.194 123.054 324.009 129.211C325.261 138.67 322.675 145.966 316.639 152.544C309.859 159.938 304.107 168.741 297.918 176.939C293.683 182.553 293.418 187.647 296.482 194.658C297.215 196.352 297.297 199.085 296.696 200.828C296.136 202.411 294.243 203.301 293.418 204.067ZM349.642 7.69087C351.23 9.28592 352.278 11.0912 353.052 10.9304C354.141 10.6955 355.495 9.17464 355.801 7.87634C355.994 7.06027 354.426 4.66152 353.754 4.72334C352.574 4.82226 351.474 6.26893 349.642 7.69087ZM296.36 198.095C294.772 196.537 293.622 194.683 292.93 194.905C291.82 195.251 291.016 196.995 290.079 198.145C290.965 199.109 291.81 200.766 292.757 200.853C293.683 200.952 294.711 199.455 296.36 198.095Z" fill="url(#paint24_linear_52_2)"/>
<path d="M300.005 412.487C300.076 406.75 303.69 404.463 307.232 406.466C309.421 407.702 311.834 408.691 314.226 409.025C319.245 409.73 325.719 417.507 326.035 423.739C326.381 430.552 330.799 435.931 336.408 436.017C344.369 436.141 352.35 435.721 360.29 436.24C363.008 436.413 366.276 437.946 368.2 440.221C379.123 453.143 389.832 466.336 400.348 479.751C403.666 483.993 407.117 485.798 411.932 485.526C419.883 485.081 427.854 485.427 435.825 485.39C439.469 485.365 443.113 486.057 446.31 482.373C447.155 481.396 450.83 482.323 451.858 483.782C452.866 485.192 452.957 489.384 451.98 490.583C450.759 492.091 447.99 492.351 445.964 492.141C443.236 491.844 440.599 489.928 437.901 489.853C427.905 489.557 417.898 489.989 407.911 489.544C405.346 489.433 402.241 487.887 400.419 485.711C389.058 472.16 378.084 458.113 366.734 444.561C364.922 442.398 361.868 440.877 359.313 440.704C351.881 440.197 344.409 440.543 336.958 440.518C329.129 440.481 323.011 433.68 322.38 424.37C321.779 415.541 314.287 411.251 307.955 415.789C306.469 416.852 304.036 416.988 302.366 416.32C301.155 415.838 300.483 413.341 300.005 412.487ZM452.153 487.121C450.402 485.674 449.14 483.931 448.448 484.215C447.338 484.673 446.605 486.478 445.72 487.714C446.707 488.605 447.674 490.125 448.692 490.175C449.598 490.224 450.555 488.617 452.153 487.121ZM304.382 416.296C305.726 414.243 307.029 413.118 307.029 412.017C307.019 410.855 305.868 408.914 305.023 408.753C304.138 408.58 302.224 410.101 302.214 410.917C302.183 412.339 303.272 413.773 304.382 416.296Z" fill="url(#paint25_linear_52_2)"/>
<path d="M220.632 551.64C220.632 542.379 220.428 533.105 220.764 523.869C220.866 521.112 221.996 517.884 223.533 515.844C227.758 510.243 232.634 505.371 236.859 499.758C238.498 497.569 239.943 494.206 239.974 491.35C240.218 468.512 240.177 445.674 240.015 422.837C239.994 420.191 238.304 417.619 238.04 414.911C237.795 412.401 237.683 408.79 238.874 407.443C240.055 406.107 243.73 405.946 244.86 407.208C246.102 408.592 246.173 412.24 245.919 414.775C245.512 418.855 243.751 422.837 243.71 426.88C243.486 449.099 243.689 471.331 243.486 493.551C243.466 496.073 242.275 498.991 240.9 501.006C238.315 504.79 235.485 508.5 232.247 511.405C225.559 517.377 223.666 524.957 224.144 534.849C224.836 548.994 224.154 563.238 224.47 577.433C224.531 580.24 225.997 583.467 227.615 585.631C230.089 588.944 233.113 591.764 236.187 594.286C238.009 595.794 240.615 595.918 242.417 597.439C244.137 598.898 246.163 601.247 246.387 603.448C246.55 605.155 244.188 608.703 242.845 608.777C241.012 608.876 237.571 606.601 237.47 605.093C237.042 598.774 233.021 596.301 229.692 593.791C222.403 588.301 219.36 581.216 220.52 570.781C221.202 564.487 220.632 558.02 220.632 551.64ZM245.675 411.226C243.934 409.99 242.804 408.543 241.908 408.729C241.002 408.914 239.699 410.781 239.75 411.832C239.801 412.883 241.338 414.651 242.173 414.602C243.14 414.565 244.056 412.883 245.675 411.226ZM245.868 603.411C244.117 601.89 243.13 600.369 242.193 600.419C241.277 600.456 239.77 602.039 239.699 603.053C239.628 604.141 240.982 606.342 241.643 606.304C242.814 606.243 243.934 604.845 245.868 603.411Z" fill="url(#paint26_linear_52_2)"/>
<path d="M333.11 313.409C333.14 308.092 337.08 305.582 340.449 307.288C343.127 308.648 346.079 309.934 348.919 309.971C367.233 310.206 385.556 309.91 403.86 310.281C406.7 310.342 409.998 312.234 412.207 314.522C416.686 319.195 420.382 324.982 424.779 329.792C426.581 331.758 429.381 333.365 431.753 333.427C444.803 333.774 457.884 334.033 470.915 333.415C477.735 333.093 482.907 335.455 487.722 341.143C490.094 343.937 493.84 344.951 496.609 347.35C498.339 348.846 500.518 351.48 500.477 353.532C500.436 355.375 497.678 358.429 496.018 358.54C494.451 358.639 491.855 355.968 491.254 353.866C489.361 347.202 480.158 338.002 474.376 337.99C459.961 337.965 445.546 338.2 431.132 337.792C428.292 337.706 424.973 335.913 422.794 333.613C418.203 328.778 414.365 322.893 409.907 317.848C408.349 316.092 405.865 314.645 403.789 314.621C384.793 314.373 365.797 314.41 346.812 314.583C344.99 314.596 343.208 316.29 341.335 316.809C339.472 317.316 337.344 317.959 335.655 317.304C334.423 316.821 333.69 314.361 333.11 313.409ZM495.652 357.996C496.965 355.931 498.258 354.781 498.248 353.656C498.238 352.518 496.996 350.639 496.14 350.503C495.265 350.355 493.392 351.95 493.402 352.753C493.412 354.175 494.532 355.573 495.652 357.996ZM338.362 317.081C339.411 315.029 340.734 313.483 340.49 312.642C340.103 311.356 338.627 310.565 337.609 309.563C336.886 310.701 335.553 311.888 335.604 312.976C335.665 314.138 337.029 315.202 338.362 317.081Z" fill="url(#paint27_linear_52_2)"/>
<path d="M317.514 24.0865C318.094 23.3693 319.224 20.983 320.822 20.3524C322.207 19.8083 324.823 20.6367 325.617 21.9721C326.574 23.5795 327.042 27.0664 326.238 28.5378C321.942 36.4389 324.762 44.9582 324.385 53.1436C324.324 54.5285 325.872 56.3708 327.032 57.4218C331.084 61.1065 332.631 65.8298 332.122 71.9133C331.807 75.5856 331.634 79.4187 332.153 83.0168C333.456 92.0801 329.516 97.8668 324.284 102.875C323.052 104.062 321.301 104.828 319.723 105.051C311.599 106.164 307.192 111.147 308.067 121.051C309.35 135.505 306.448 147.103 296.493 155.857C293.663 158.343 291.871 162.571 289.071 165.131C282.373 171.276 281.304 179.523 282.322 188.686C282.556 190.788 284.022 192.692 284.216 194.782C284.429 197.131 284.541 200.42 283.432 201.78C282.322 203.14 279.075 203.672 277.833 202.646C276.499 201.557 275.278 197.069 275.97 196.055C279.859 190.404 278.006 183.901 278.739 177.792C279.115 174.602 280.062 170.979 281.762 168.643C287.931 160.16 294.701 152.309 300.86 143.814C302.672 141.316 303.73 137.57 304.239 134.207C304.809 130.423 304.789 126.318 304.27 122.51C303.089 113.805 306.52 107.907 311.599 102.875C312.689 101.799 314.216 100.933 315.6 100.785C324.558 99.8452 328.478 94.8746 328.488 84.1049C328.488 81.0137 328.264 77.8978 328.539 74.8437C329.139 68.1915 327.643 62.9612 323.093 58.7077C321.545 57.2611 320.772 53.8855 320.517 51.2642C320.1 46.9983 320.731 42.5841 320.303 38.3183C319.845 34.0154 318.664 29.8485 317.514 24.0865ZM283.839 198.095C282.169 196.476 280.999 194.646 280.398 194.893C279.238 195.375 278.393 197.007 277.415 198.17C278.311 199.122 279.146 200.741 280.103 200.853C281.019 200.964 282.057 199.493 283.839 198.095ZM325.933 25.4837C324.243 24.1978 323.184 22.7387 322.288 22.8748C321.301 23.0231 320.466 24.6429 319.56 25.6197C320.517 26.7696 321.362 28.5007 322.492 28.8593C323.174 29.0819 324.314 27.1653 325.933 25.4837Z" fill="url(#paint28_linear_52_2)"/>
<path d="M167.259 296.222C167.045 301.6 163.187 303.863 159.746 302.169C157.048 300.834 154.086 299.61 151.226 299.573C133.095 299.338 114.955 299.634 96.8345 299.264C93.9943 299.202 90.6858 297.384 88.4666 295.109C83.9365 290.497 80.2006 284.76 75.7316 280.049C73.7669 277.971 70.8452 276.166 68.3308 276.104C54.0993 275.733 39.8678 276.018 25.6262 275.857C22.4399 275.82 20.2207 276.883 18.4086 280.21C15.0289 286.417 9.55213 290.905 8.74791 299.264C8.6054 300.71 5.32747 302.726 3.60707 302.59C2.24296 302.478 0.19685 299.585 0.0136121 297.706C-0.169626 295.839 1.54056 292.005 2.52801 291.956C7.72993 291.659 9.81684 286.825 11.9139 282.732C16.5152 273.743 22.501 270.59 31.2964 271.295C43.95 272.308 56.7054 271.332 69.4099 271.752C72.0974 271.839 75.2124 273.607 77.2891 275.771C81.9006 280.58 85.7995 286.392 90.3703 291.288C92.1925 293.242 94.992 294.862 97.3639 294.899C115.83 295.196 134.307 295.146 152.773 294.948C154.931 294.924 157.038 293.155 159.237 292.587C161.08 292.104 163.218 291.548 164.856 292.265C166.088 292.809 166.74 295.294 167.259 296.222ZM162.647 301.452C163.635 299.226 164.744 297.866 164.571 296.803C164.378 295.616 163.034 294.701 162.189 293.675C161.304 294.924 159.99 296.049 159.695 297.483C159.543 298.237 161.151 299.523 162.647 301.452ZM0.542891 297.236C2.38545 298.546 3.48496 299.968 4.41133 299.808C5.32752 299.659 6.71194 297.953 6.72212 296.914C6.7323 295.826 5.19518 293.724 4.59457 293.848C3.40352 294.095 2.38545 295.591 0.542891 297.236Z" fill="url(#paint29_linear_52_2)"/>
<path d="M15.9349 213.984C16.3624 213.168 16.9325 210.806 18.1541 210.101C19.5589 209.298 21.8392 209.261 23.2033 210.126C30.7568 214.911 42.8811 213.118 49.2537 206.244C50.6178 204.772 52.725 203.758 54.5574 203.61C59.1078 203.239 63.7803 204.129 68.2595 203.338C75.2531 202.114 79.9561 205.848 83.8245 212.092C84.7814 213.625 85.606 215.616 85.7587 217.483C86.6138 227.474 90.6247 232.853 98.6974 231.851C110.547 230.38 120.095 233.817 127.415 245.823C130.092 250.213 134.022 253.465 137.34 257.285C144.497 265.52 150.839 266.386 159.929 261.069C161.426 260.191 164.378 260.945 165.681 262.305C166.719 263.393 167.065 267.288 166.261 268.648C165.253 270.342 161.864 272.148 161.019 271.393C156.57 267.412 151.602 269.044 146.858 268.203C143.764 267.647 140.282 266.237 137.992 263.801C130.713 256.098 124.015 247.616 116.858 239.74C115.291 238.009 112.827 236.945 110.669 236.636C107.157 236.129 103.482 235.894 100.021 236.624C92.7727 238.145 88.0899 233.594 83.9467 227.573C82.9592 226.139 82.3485 223.975 82.2263 222.095C81.5952 212.414 77.6861 207.814 69.7458 207.789C66.5289 207.777 63.2815 208.061 60.0952 207.715C55.1987 207.183 51.3303 208.655 47.971 213.415C46.5865 215.381 43.6853 216.271 41.3643 216.642C38.0354 217.174 34.5742 216.457 31.225 216.89C28.7004 217.224 26.0842 218.114 23.8344 219.523C20.0068 221.959 16.1385 220.018 15.9349 213.984ZM161.874 270.417C163.207 268.512 164.551 267.437 164.551 266.349C164.561 265.162 163.329 263.95 162.647 262.763C161.589 263.789 160.143 264.605 159.634 265.941C159.359 266.633 160.744 268.265 161.874 270.417ZM20.9536 219.734C22.0021 217.397 23.1219 216.024 22.9692 214.924C22.8063 213.786 21.4015 212.117 20.5464 212.129C19.6607 212.129 17.9505 214.033 18.0625 214.788C18.2661 216.222 19.5182 217.446 20.9536 219.734Z" fill="url(#paint30_linear_52_2)"/>
<path d="M333.15 344.308C333.303 339.375 337.151 335.814 339.533 338.052C343.992 342.231 348.929 340.277 353.632 341.229C356.737 341.86 360.239 343.146 362.519 345.569C369.788 353.285 376.466 361.817 383.632 369.681C385.312 371.523 387.989 372.5 390.31 372.896C393.466 373.427 396.805 373.526 399.951 372.933C407.016 371.597 412.044 375.245 416.025 381.712C417.073 383.418 417.979 385.594 418.213 387.671C419.252 397.328 423.1 401.631 431.132 401.656C434.013 401.668 436.924 401.347 439.774 401.73C444.875 402.398 448.926 400.84 452.296 395.807C453.466 394.052 456.001 393.075 457.996 392.84C461.855 392.382 465.804 393.001 469.673 392.58C472.035 392.32 474.264 390.49 476.626 390.169C478.855 389.86 481.563 389.848 483.304 391.158C484.21 391.838 484.159 396.141 483.334 398.033C481.96 401.174 479.415 401.248 476.748 399.418C469.469 394.447 457.243 396.512 451.206 403.127C449.741 404.735 447.399 405.711 445.394 405.909C441.179 406.33 436.863 405.464 432.699 406.169C425.614 407.368 420.585 403.882 416.666 397.303C415.628 395.572 414.752 393.396 414.528 391.307C413.51 382.008 409.469 376.543 402.007 377.78C389.292 379.882 379.733 374.627 371.987 362.769C369.89 359.566 366.866 357.254 364.84 354.002C360.27 346.67 354.365 343.987 347.097 345.532C345.071 345.965 343.218 347.511 341.192 348.055C339.33 348.562 337.161 349.081 335.492 348.352C334.29 347.795 333.669 345.26 333.15 344.308ZM341.874 343.542C340.062 342.083 339.024 340.586 338.108 340.685C337.141 340.797 336.286 342.416 335.39 343.381C336.347 344.543 337.161 346.225 338.301 346.658C338.953 346.917 340.134 345.137 341.874 343.542ZM475.72 394.373C477.481 395.956 478.448 397.514 479.354 397.452C480.321 397.402 481.878 395.943 481.99 394.905C482.113 393.841 480.799 391.542 480.128 391.554C478.947 391.566 477.786 392.939 475.72 394.373Z" fill="url(#paint31_linear_52_2)"/>
<path d="M175.138 589.798C170.343 589.55 168.491 584.518 170.669 580.054C174.833 571.535 173.224 556.957 167.86 549.662C166.149 547.325 165.141 543.739 164.765 540.561C164.246 536.122 165.101 531.436 164.531 527.022C163.38 518.132 166.618 511.986 172.094 507.053C173.499 505.779 175.301 504.691 177.011 504.456C184.656 503.393 189.064 498.595 188.087 489.272C186.529 474.385 190.449 463.01 199.865 453.773C202.614 451.078 204.497 447.022 207.347 444.574C214.453 438.49 215.481 430.045 214.402 420.685C214.137 418.422 212.325 416.395 212.162 414.157C211.999 411.832 212.417 408.728 213.628 407.22C214.595 406.033 217.833 405.823 218.84 406.886C220.154 408.271 221.406 412.512 220.714 413.489C217.008 418.781 218.219 424.84 218.291 430.602C218.342 435.3 217.181 438.701 214.433 442.014C207.704 450.138 201.127 458.472 194.816 467.065C193.197 469.266 192.281 472.666 191.915 475.671C191.436 479.702 191.355 483.98 191.904 487.986C193.034 496.246 189.583 501.686 184.982 506.533C183.923 507.646 182.356 508.425 180.951 508.611C172.135 509.773 168.307 514.818 168.307 525.612C168.307 528.703 168.572 531.832 168.246 534.861C167.524 541.563 169.264 546.632 173.56 551.059C175.189 552.74 175.942 556.252 176.258 559.071C176.706 563.114 176.115 567.318 176.462 571.399C176.726 574.502 177.877 577.47 178.416 580.561C178.742 582.416 179.21 584.753 178.579 586.212C177.836 587.93 175.973 588.969 175.138 589.798ZM212.773 411.622C214.585 413.167 215.685 414.824 216.509 414.639C217.517 414.416 218.291 412.66 219.166 411.56C218.291 410.546 217.476 408.864 216.509 408.716C215.634 408.58 214.585 410.126 212.773 411.622ZM170.486 583.442C172.135 585.025 173.061 586.62 173.988 586.62C174.914 586.62 176.472 585.136 176.594 584.11C176.716 583.034 175.444 580.709 174.802 580.734C173.632 580.759 172.481 582.082 170.486 583.442Z" fill="url(#paint32_linear_52_2)"/>
<path d="M138.47 425.31C138.47 422.021 138.847 418.645 138.399 415.443C137.249 407.195 141.127 401.779 145.27 396.586C146.299 395.3 148.243 394.732 149.821 394.546C159.655 393.446 162.586 386.954 158.402 376.271C157.649 374.355 158.382 370.472 159.624 368.889C160.53 367.727 164.256 367.9 165.192 369.161C166.373 370.744 166.312 374.07 166.159 376.593C166.047 378.46 164.49 380.166 164.317 382.045C163.319 392.63 159.084 397.959 150.472 398.997C146.248 399.504 141.952 406.688 142.023 413.167C142.115 421.81 142.186 430.453 142.379 439.084C142.491 444.104 141.158 447.974 138.073 451.597C125.42 466.497 112.959 481.643 100.581 496.877C98.9315 498.904 98.4429 502.268 96.9159 504.493C95.4907 506.571 93.5158 508.932 91.5307 509.316C90.3804 509.538 87.4181 505.829 87.6319 504.419C87.9984 502.033 90.0241 499.77 91.7547 498.039C93.4751 496.308 96.0506 495.751 97.6285 493.897C109.519 479.826 121.154 465.408 133.116 451.424C136.933 446.96 139.213 442.398 138.531 435.795C138.165 432.357 138.46 428.809 138.47 425.31ZM92.223 508.277C93.4242 506.36 94.8901 504.988 94.717 504.085C94.4422 502.7 93.0475 501.637 92.1314 500.438C91.2661 501.674 89.9325 502.812 89.7188 504.197C89.5661 505.124 91.0217 506.422 92.223 508.277ZM165.925 373.279C164.124 371.82 163.034 370.274 162.189 370.447C161.212 370.645 160.438 372.351 159.573 373.402C160.459 374.453 161.263 376.16 162.261 376.345C163.106 376.494 164.154 374.861 165.925 373.279Z" fill="url(#paint33_linear_52_2)"/>
<path d="M333.222 327.838C333.191 323.523 337.11 319.962 339.879 322.596C344.491 326.985 349.55 326.404 354.365 325.699C365.4 324.067 374.063 327.925 380.894 338.794C387.063 348.611 395.329 353.137 405.672 350.837C405.998 350.763 406.354 350.886 406.69 350.824C419.567 348.314 430.104 352.716 438.197 365.65C439.54 367.801 442.839 369.149 445.221 369.124C451.115 369.05 457.345 371.313 462.832 366.095C463.606 365.353 466.812 366.96 467.84 368.506C468.706 369.804 468.726 373.266 467.881 374.577C466.863 376.147 463.656 377.804 462.893 377.075C457.253 371.758 450.809 374.849 444.834 373.662C441.729 373.044 437.769 371.919 436.038 369.26C428.393 357.551 418.946 352.63 406.853 355.288C394.667 357.971 385.037 352.729 377.708 341.069C371.875 331.795 364.403 328.593 355.068 330.138C349.845 331.004 344.399 328.902 339.431 333.279C336.897 335.48 333.252 331.857 333.222 327.838ZM338.362 332.327C339.452 330.052 340.622 328.692 340.48 327.591C340.327 326.429 338.912 325.514 338.047 324.5C337.161 325.712 335.807 326.8 335.563 328.172C335.41 329.025 336.937 330.311 338.362 332.327ZM463.646 376.073C465.082 374.194 466.741 372.871 466.588 372.03C466.334 370.633 464.929 369.545 464.003 368.321C463.158 369.372 461.753 370.311 461.62 371.486C461.478 372.611 462.649 373.959 463.646 376.073Z" fill="url(#paint34_linear_52_2)"/>
<path d="M185.084 196.018C185.532 195.721 187.232 194.967 188.596 193.681C191.039 191.394 193.604 191.159 195.223 194.163C196.18 195.931 196.404 199.369 195.62 201.236C194.337 204.315 191.752 204.871 189.085 202.831C187.822 201.867 186.316 200.408 185.064 200.593C178.966 201.52 175.81 196.476 172.451 191.901C171.524 190.639 170.913 188.71 170.761 187.004C169.957 177.966 166.129 173.551 158.718 173.527C151.592 173.502 144.466 173.255 137.35 173.626C133.248 173.836 130.398 172.117 127.578 168.618C115.372 153.446 103.024 138.435 90.5636 123.561C88.772 121.422 85.8911 120.692 83.9366 118.689C82.1958 116.909 80.1191 114.361 79.9664 111.987C79.8646 110.429 83.1629 106.943 84.5066 107.239C86.3797 107.647 88.0492 110.602 89.4337 112.803C90.584 114.621 90.8385 117.366 92.111 118.949C104.816 134.689 117.591 150.343 130.53 165.799C132.016 167.579 134.592 168.803 136.699 168.902C144.486 169.273 152.295 169.013 160.102 169.063C167.422 169.1 173.896 176.408 174.375 185.051C174.7 190.281 179.516 195.981 185.084 196.018ZM84.3132 117.242C85.6774 115.153 87.0109 114.015 86.9804 112.915C86.9498 111.715 85.6773 110.553 84.9444 109.366C83.9366 110.429 82.4808 111.283 82.0736 112.618C81.809 113.434 83.1527 114.98 84.3132 117.242ZM188.036 198.108C189.787 199.443 190.886 200.939 191.833 200.816C192.719 200.692 194.113 198.812 194.063 197.774C194.012 196.71 192.515 194.955 191.64 194.942C190.673 194.93 189.685 196.55 188.036 198.108Z" fill="url(#paint35_linear_52_2)"/>
<path d="M144.965 280.704C150.228 279.159 155.46 277.353 160.785 276.253C162.413 275.919 164.979 276.908 165.915 278.404C166.831 279.876 166.943 283.4 166.078 284.834C165.162 286.355 161.803 287.789 161.008 287.01C155.42 281.508 148.854 283.016 143 283.931C132.943 285.514 126.204 279.913 120.146 271.764C117.072 267.635 113.652 265.112 109.05 266.299C101.09 268.352 96.1118 262.342 90.6859 257.05C88.8841 255.295 86.1457 254.985 84.2624 253.316C82.43 251.696 80.3737 249.384 79.9156 246.961C79.6509 245.576 82.5012 241.73 83.7126 241.866C85.7079 242.101 88.5175 244.203 89.22 246.367C91.8158 254.367 99.6747 262.182 106.699 261.638C113.377 261.131 118.467 263.245 123.363 269.217C131.945 279.715 132.291 279.295 144.965 280.704ZM84.578 242.571C83.2749 244.76 81.8599 246.182 82.0533 247.035C82.3689 248.383 83.7839 249.359 84.7306 250.485C85.5348 249.384 86.8888 248.358 86.9804 247.183C87.0618 246.07 85.8199 244.809 84.578 242.571ZM162.006 286.478C163.299 284.376 164.561 283.226 164.541 282.126C164.51 280.964 163.319 279.047 162.495 278.924C161.599 278.788 159.716 280.345 159.716 281.174C159.726 282.571 160.846 283.981 162.006 286.478Z" fill="url(#paint36_linear_52_2)"/>
<path d="M336.896 385.508C336.021 382.8 334.728 380.154 334.382 377.347C334.056 374.664 334.056 371.251 335.207 369.223C335.868 368.048 340.134 367.999 340.867 369.186C342.048 371.09 342.689 375.307 341.732 377.038C336.774 385.965 341.773 402.175 352.655 400.79C363.466 399.418 364.973 402.002 367.731 415.653C369.248 423.133 379.194 427.968 384.711 423.566C387.511 421.328 390.229 420.129 392.102 423.863C393.028 425.705 392.642 430.762 391.746 431.232C389.75 432.271 387.032 431.517 384.65 431.146C382.899 430.874 381.21 429.6 379.479 429.538C370.724 429.18 365.777 423.776 363.934 413.044C363.14 408.407 360.799 404.858 356.289 404.821C354.599 404.809 352.899 404.797 351.209 404.797C342.058 404.759 335.96 397.093 336.896 385.508ZM338.271 378.126C339.391 375.875 340.582 374.552 340.459 373.44C340.337 372.277 338.943 371.313 338.108 370.249C337.192 371.436 335.817 372.5 335.543 373.872C335.38 374.725 336.886 376.073 338.271 378.126ZM392.509 427.115C390.585 425.891 389.445 424.555 388.519 424.741C387.602 424.939 386.259 426.694 386.279 427.721C386.299 428.809 387.898 430.837 388.508 430.688C389.7 430.391 390.677 428.858 392.509 427.115Z" fill="url(#paint37_linear_52_2)"/>
<path d="M267.409 204.043C264.11 204.253 260.863 199.035 262.879 195.969C266.177 190.948 265.851 185.397 265.261 180.142C263.683 166.157 266.981 154.831 276.051 146.003C279.258 142.874 280.195 138.745 279.767 133.91C279.166 127.134 281.243 119.975 277.253 113.619C276.601 112.581 277.711 108.599 278.942 107.474C280.164 106.361 283.065 106.25 284.297 107.313C285.57 108.402 286.791 112.482 286.16 113.446C281.436 120.643 283.717 128.865 283.483 136.606C283.35 141.057 282.668 144.717 279.736 147.437C270.717 155.796 267.409 166.751 269.007 180.315C269.638 185.656 268.396 191.146 271.664 196.129C273.527 198.961 270.554 203.845 267.409 204.043ZM281.559 116.562C282.953 114.324 284.307 113.088 284.389 111.728C284.45 110.726 282.841 109.589 281.966 108.513C281.07 109.65 279.706 110.652 279.421 111.987C279.227 112.939 280.469 114.349 281.559 116.562ZM266.93 202.559C268.254 200.395 269.536 199.221 269.475 198.157C269.404 196.958 268.142 195.845 267.388 194.695C266.482 195.684 265.037 196.525 264.823 197.7C264.63 198.751 265.81 200.16 266.93 202.559Z" fill="url(#paint38_linear_52_2)"/>
<path d="M106.841 189.7C106.974 186.015 111.096 182.306 113.356 184.469C118.579 189.465 124.453 187.746 129.929 187.35C137.289 186.819 142.98 188.97 147.571 196.216C150.228 200.42 153.557 204.067 156.855 207.591C161.741 212.797 165.61 218.275 164.358 227.041C164.124 228.661 165.966 230.577 166.109 232.445C166.302 234.979 166.536 238.627 165.365 239.888C164.154 241.186 160.52 241.199 159.339 239.9C158.148 238.59 157.771 234.448 158.576 232.482C161.843 224.519 161.568 219.659 156.489 213.403C152.681 208.717 148.538 204.389 145.087 199.357C141.178 193.656 136.689 191.023 130.571 192C124.727 192.927 118.599 190.306 113.041 195.363C110.689 197.514 106.709 193.421 106.841 189.7ZM165.793 236.377C164.246 234.744 163.38 233.1 162.485 233.075C161.528 233.05 160.54 234.559 159.573 235.387C160.418 236.673 161.09 238.392 162.189 239.047C162.729 239.381 164.073 237.724 165.793 236.377ZM112.003 194.695C113.173 192.333 114.313 190.973 114.364 189.539C114.395 188.748 112.542 187.128 111.636 187.227C110.801 187.326 109.549 189.193 109.508 190.33C109.478 191.455 110.75 192.63 112.003 194.695Z" fill="url(#paint39_linear_52_2)"/>
<path d="M355.811 136.272C353.296 138.98 351.759 140.884 350.018 142.442C348.094 144.16 345.529 145.1 344.002 147.19C333.456 161.644 323.052 176.247 312.75 190.973C311.325 193.013 311.04 196.191 309.696 198.355C308.332 200.544 306.489 203.066 304.514 203.622C303.405 203.931 300.249 200.321 300.412 198.862C300.676 196.438 302.641 194.003 304.311 192.16C306.041 190.256 308.719 189.514 310.225 187.449C320.334 173.626 330.341 159.678 340.154 145.545C342.098 142.751 342.801 138.72 344.593 135.703C345.814 133.65 347.901 131.128 349.632 131.103C351.362 131.066 353.123 133.873 355.811 136.272ZM345.58 136.272C347.076 137.904 347.962 139.635 348.899 139.672C349.835 139.709 350.833 138.077 351.8 137.187C350.985 135.901 350.354 134.034 349.285 133.527C348.634 133.193 347.3 134.924 345.58 136.272ZM305.044 202.559C306.326 200.247 307.629 198.936 307.507 197.86C307.365 196.686 305.909 195.734 305.023 194.695C304.209 195.771 302.855 196.772 302.733 197.959C302.611 199.035 303.842 200.321 305.044 202.559Z" fill="url(#paint40_linear_52_2)"/>
<defs>
<linearGradient id="paint0_linear_52_2" x1="508" y1="308.5" x2="4.70734e-05" y2="308.5" gradientUnits="userSpaceOnUse">
<stop stop-color="#FFC700"/>
<stop offset="0.524643" stop-color="#121212"/>
</linearGradient>
<linearGradient id="paint1_linear_52_2" x1="508" y1="308.5" x2="4.70734e-05" y2="308.5" gradientUnits="userSpaceOnUse">
<stop stop-color="#FFC700"/>
<stop offset="0.524643" stop-color="#121212"/>
</linearGradient>
<linearGradient id="paint2_linear_52_2" x1="508" y1="308.5" x2="4.70734e-05" y2="308.5" gradientUnits="userSpaceOnUse">
<stop stop-color="#FFC700"/>
<stop offset="0.524643" stop-color="#121212"/>
</linearGradient>
<linearGradient id="paint3_linear_52_2" x1="508" y1="308.5" x2="4.70734e-05" y2="308.5" gradientUnits="userSpaceOnUse">
<stop stop-color="#FFC700"/>
<stop offset="0.524643" stop-color="#121212"/>
</linearGradient>
<linearGradient id="paint4_linear_52_2" x1="508" y1="308.5" x2="4.70734e-05" y2="308.5" gradientUnits="userSpaceOnUse">
<stop stop-color="#FFC700"/>
<stop offset="0.524643" stop-color="#121212"/>
</linearGradient>
<linearGradient id="paint5_linear_52_2" x1="508" y1="308.5" x2="4.70734e-05" y2="308.5" gradientUnits="userSpaceOnUse">
<stop stop-color="#FFC700"/>
<stop offset="0.524643" stop-color="#121212"/>
</linearGradient>
<linearGradient id="paint6_linear_52_2" x1="508" y1="308.5" x2="4.70734e-05" y2="308.5" gradientUnits="userSpaceOnUse">
<stop stop-color="#FFC700"/>
<stop offset="0.524643" stop-color="#121212"/>
</linearGradient>
<linearGradient id="paint7_linear_52_2" x1="508" y1="308.5" x2="4.70734e-05" y2="308.5" gradientUnits="userSpaceOnUse">
<stop stop-color="#FFC700"/>
<stop offset="0.524643" stop-color="#121212"/>
</linearGradient>
<linearGradient id="paint8_linear_52_2" x1="508" y1="308.5" x2="4.70734e-05" y2="308.5" gradientUnits="userSpaceOnUse">
<stop stop-color="#FFC700"/>
<stop offset="0.524643" stop-color="#121212"/>
</linearGradient>
<linearGradient id="paint9_linear_52_2" x1="508" y1="308.5" x2="4.70734e-05" y2="308.5" gradientUnits="userSpaceOnUse">
<stop stop-color="#FFC700"/>
<stop offset="0.524643" stop-color="#121212"/>
</linearGradient>
<linearGradient id="paint10_linear_52_2" x1="508" y1="308.5" x2="4.70734e-05" y2="308.5" gradientUnits="userSpaceOnUse">
<stop stop-color="#FFC700"/>
<stop offset="0.524643" stop-color="#121212"/>
</linearGradient>
<linearGradient id="paint11_linear_52_2" x1="508" y1="308.5" x2="4.70734e-05" y2="308.5" gradientUnits="userSpaceOnUse">
<stop stop-color="#FFC700"/>
<stop offset="0.524643" stop-color="#121212"/>
</linearGradient>
<linearGradient id="paint12_linear_52_2" x1="508" y1="308.5" x2="4.70734e-05" y2="308.5" gradientUnits="userSpaceOnUse">
<stop stop-color="#FFC700"/>
<stop offset="0.524643" stop-color="#121212"/>
</linearGradient>
<linearGradient id="paint13_linear_52_2" x1="508" y1="308.5" x2="4.70734e-05" y2="308.5" gradientUnits="userSpaceOnUse">
<stop stop-color="#FFC700"/>
<stop offset="0.524643" stop-color="#121212"/>
</linearGradient>
<linearGradient id="paint14_linear_52_2" x1="508" y1="308.5" x2="4.70734e-05" y2="308.5" gradientUnits="userSpaceOnUse">
<stop stop-color="#FFC700"/>
<stop offset="0.524643" stop-color="#121212"/>
</linearGradient>
<linearGradient id="paint15_linear_52_2" x1="508" y1="308.5" x2="4.70734e-05" y2="308.5" gradientUnits="userSpaceOnUse">
<stop stop-color="#FFC700"/>
<stop offset="0.524643" stop-color="#121212"/>
</linearGradient>
<linearGradient id="paint16_linear_52_2" x1="508" y1="308.5" x2="4.70734e-05" y2="308.5" gradientUnits="userSpaceOnUse">
<stop stop-color="#FFC700"/>
<stop offset="0.524643" stop-color="#121212"/>
</linearGradient>
<linearGradient id="paint17_linear_52_2" x1="508" y1="308.5" x2="4.70734e-05" y2="308.5" gradientUnits="userSpaceOnUse">
<stop stop-color="#FFC700"/>
<stop offset="0.524643" stop-color="#121212"/>
</linearGradient>
<linearGradient id="paint18_linear_52_2" x1="508" y1="308.5" x2="4.70734e-05" y2="308.5" gradientUnits="userSpaceOnUse">
<stop stop-color="#FFC700"/>
<stop offset="0.524643" stop-color="#121212"/>
</linearGradient>
<linearGradient id="paint19_linear_52_2" x1="508" y1="308.5" x2="4.70734e-05" y2="308.5" gradientUnits="userSpaceOnUse">
<stop stop-color="#FFC700"/>
<stop offset="0.524643" stop-color="#121212"/>
</linearGradient>
<linearGradient id="paint20_linear_52_2" x1="508" y1="308.5" x2="4.70734e-05" y2="308.5" gradientUnits="userSpaceOnUse">
<stop stop-color="#FFC700"/>
<stop offset="0.524643" stop-color="#121212"/>
</linearGradient>
<linearGradient id="paint21_linear_52_2" x1="508" y1="308.5" x2="4.70734e-05" y2="308.5" gradientUnits="userSpaceOnUse">
<stop stop-color="#FFC700"/>
<stop offset="0.524643" stop-color="#121212"/>
</linearGradient>
<linearGradient id="paint22_linear_52_2" x1="508" y1="308.5" x2="4.70734e-05" y2="308.5" gradientUnits="userSpaceOnUse">
<stop stop-color="#FFC700"/>
<stop offset="0.524643" stop-color="#121212"/>
</linearGradient>
<linearGradient id="paint23_linear_52_2" x1="508" y1="308.5" x2="4.70734e-05" y2="308.5" gradientUnits="userSpaceOnUse">
<stop stop-color="#FFC700"/>
<stop offset="0.524643" stop-color="#121212"/>
</linearGradient>
<linearGradient id="paint24_linear_52_2" x1="508" y1="308.5" x2="4.70734e-05" y2="308.5" gradientUnits="userSpaceOnUse">
<stop stop-color="#FFC700"/>
<stop offset="0.524643" stop-color="#121212"/>
</linearGradient>
<linearGradient id="paint25_linear_52_2" x1="508" y1="308.5" x2="4.70734e-05" y2="308.5" gradientUnits="userSpaceOnUse">
<stop stop-color="#FFC700"/>
<stop offset="0.524643" stop-color="#121212"/>
</linearGradient>
<linearGradient id="paint26_linear_52_2" x1="508" y1="308.5" x2="4.70734e-05" y2="308.5" gradientUnits="userSpaceOnUse">
<stop stop-color="#FFC700"/>
<stop offset="0.524643" stop-color="#121212"/>
</linearGradient>
<linearGradient id="paint27_linear_52_2" x1="508" y1="308.5" x2="4.70734e-05" y2="308.5" gradientUnits="userSpaceOnUse">
<stop stop-color="#FFC700"/>
<stop offset="0.524643" stop-color="#121212"/>
</linearGradient>
<linearGradient id="paint28_linear_52_2" x1="508" y1="308.5" x2="4.70734e-05" y2="308.5" gradientUnits="userSpaceOnUse">
<stop stop-color="#FFC700"/>
<stop offset="0.524643" stop-color="#121212"/>
</linearGradient>
<linearGradient id="paint29_linear_52_2" x1="508" y1="308.5" x2="4.70734e-05" y2="308.5" gradientUnits="userSpaceOnUse">
<stop stop-color="#FFC700"/>
<stop offset="0.524643" stop-color="#121212"/>
</linearGradient>
<linearGradient id="paint30_linear_52_2" x1="508" y1="308.5" x2="4.70734e-05" y2="308.5" gradientUnits="userSpaceOnUse">
<stop stop-color="#FFC700"/>
<stop offset="0.524643" stop-color="#121212"/>
</linearGradient>
<linearGradient id="paint31_linear_52_2" x1="508" y1="308.5" x2="4.70734e-05" y2="308.5" gradientUnits="userSpaceOnUse">
<stop stop-color="#FFC700"/>
<stop offset="0.524643" stop-color="#121212"/>
</linearGradient>
<linearGradient id="paint32_linear_52_2" x1="508" y1="308.5" x2="4.70734e-05" y2="308.5" gradientUnits="userSpaceOnUse">
<stop stop-color="#FFC700"/>
<stop offset="0.524643" stop-color="#121212"/>
</linearGradient>
<linearGradient id="paint33_linear_52_2" x1="508" y1="308.5" x2="4.70734e-05" y2="308.5" gradientUnits="userSpaceOnUse">
<stop stop-color="#FFC700"/>
<stop offset="0.524643" stop-color="#121212"/>
</linearGradient>
<linearGradient id="paint34_linear_52_2" x1="508" y1="308.5" x2="4.70734e-05" y2="308.5" gradientUnits="userSpaceOnUse">
<stop stop-color="#FFC700"/>
<stop offset="0.524643" stop-color="#121212"/>
</linearGradient>
<linearGradient id="paint35_linear_52_2" x1="508" y1="308.5" x2="4.70734e-05" y2="308.5" gradientUnits="userSpaceOnUse">
<stop stop-color="#FFC700"/>
<stop offset="0.524643" stop-color="#121212"/>
</linearGradient>
<linearGradient id="paint36_linear_52_2" x1="508" y1="308.5" x2="4.70734e-05" y2="308.5" gradientUnits="userSpaceOnUse">
<stop stop-color="#FFC700"/>
<stop offset="0.524643" stop-color="#121212"/>
</linearGradient>
<linearGradient id="paint37_linear_52_2" x1="508" y1="308.5" x2="4.70734e-05" y2="308.5" gradientUnits="userSpaceOnUse">
<stop stop-color="#FFC700"/>
<stop offset="0.524643" stop-color="#121212"/>
</linearGradient>
<linearGradient id="paint38_linear_52_2" x1="508" y1="308.5" x2="4.70734e-05" y2="308.5" gradientUnits="userSpaceOnUse">
<stop stop-color="#FFC700"/>
<stop offset="0.524643" stop-color="#121212"/>
</linearGradient>
<linearGradient id="paint39_linear_52_2" x1="508" y1="308.5" x2="4.70734e-05" y2="308.5" gradientUnits="userSpaceOnUse">
<stop stop-color="#FFC700"/>
<stop offset="0.524643" stop-color="#121212"/>
</linearGradient>
<linearGradient id="paint40_linear_52_2" x1="508" y1="308.5" x2="4.70734e-05" y2="308.5" gradientUnits="userSpaceOnUse">
<stop stop-color="#FFC700"/>
<stop offset="0.524643" stop-color="#121212"/>
</linearGradient>
</defs>
</svg>
