<svg width="258" height="45" viewBox="0 0 258 45" fill="none" xmlns="http://www.w3.org/2000/svg">
<path d="M10.4815 1.09091L20.8526 33.6918H21.2507L31.6428 1.09091H41.6996L26.9077 44H15.2166L0.403764 1.09091H10.4815ZM40.9642 44V1.09091H69.8775V8.57067H50.0363V18.7951H68.39V26.2749H50.0363V36.5202H69.9613V44H40.9642ZM71.1901 44V1.09091H80.2622V36.5202H98.6578V44H71.1901ZM136.526 22.5455C136.526 27.2247 135.639 31.2055 133.865 34.4879C132.105 37.7704 129.703 40.2776 126.658 42.0096C123.627 43.7276 120.219 44.5866 116.433 44.5866C112.62 44.5866 109.198 43.7206 106.167 41.9886C103.136 40.2566 100.74 37.7494 98.9805 34.467C97.2205 31.1845 96.3406 27.2107 96.3406 22.5455C96.3406 17.8662 97.2205 13.8854 98.9805 10.603C100.74 7.32055 103.136 4.82031 106.167 3.10227C109.198 1.37026 112.62 0.50426 116.433 0.50426C120.219 0.50426 123.627 1.37026 126.658 3.10227C129.703 4.82031 132.105 7.32055 133.865 10.603C135.639 13.8854 136.526 17.8662 136.526 22.5455ZM127.328 22.5455C127.328 19.5144 126.874 16.9583 125.966 14.8771C125.072 12.7959 123.808 11.2176 122.174 10.142C120.54 9.06653 118.626 8.52876 116.433 8.52876C114.24 8.52876 112.327 9.06653 110.692 10.142C109.058 11.2176 107.787 12.7959 106.879 14.8771C105.985 16.9583 105.538 19.5144 105.538 22.5455C105.538 25.5765 105.985 28.1326 106.879 30.2138C107.787 32.295 109.058 33.8733 110.692 34.9489C112.327 36.0244 114.24 36.5621 116.433 36.5621C118.626 36.5621 120.54 36.0244 122.174 34.9489C123.808 33.8733 125.072 32.295 125.966 30.2138C126.874 28.1326 127.328 25.5765 127.328 22.5455ZM175.206 16.1133H166.029C165.861 14.926 165.519 13.8714 165.002 12.9496C164.486 12.0137 163.822 11.2176 163.012 10.5611C162.202 9.90459 161.266 9.40175 160.205 9.05256C159.157 8.70336 158.019 8.52876 156.789 8.52876C154.568 8.52876 152.634 9.08049 150.986 10.1839C149.338 11.2734 148.059 12.8658 147.152 14.9609C146.244 17.0421 145.79 19.5703 145.79 22.5455C145.79 25.6044 146.244 28.1745 147.152 30.2557C148.073 32.3369 149.359 33.9083 151.007 34.9698C152.655 36.0314 154.562 36.5621 156.727 36.5621C157.942 36.5621 159.066 36.4015 160.1 36.0803C161.147 35.759 162.076 35.2911 162.886 34.6765C163.696 34.0479 164.367 33.2867 164.898 32.3928C165.442 31.4988 165.82 30.4792 166.029 29.3338L175.206 29.3757C174.968 31.3452 174.375 33.2448 173.425 35.0746C172.489 36.8904 171.225 38.5176 169.633 39.9563C168.054 41.381 166.169 42.5124 163.976 43.3505C161.797 44.1746 159.332 44.5866 156.58 44.5866C152.753 44.5866 149.331 43.7206 146.314 41.9886C143.31 40.2566 140.936 37.7494 139.19 34.467C137.458 31.1845 136.592 27.2107 136.592 22.5455C136.592 17.8662 137.472 13.8854 139.232 10.603C140.992 7.32055 143.38 4.82031 146.397 3.10227C149.414 1.37026 152.809 0.50426 156.58 0.50426C159.066 0.50426 161.371 0.853455 163.494 1.55185C165.631 2.25024 167.524 3.26988 169.172 4.61079C170.82 5.93773 172.161 7.56498 173.195 9.49254C174.242 11.4201 174.913 13.627 175.206 16.1133ZM184.884 1.09091V44H175.811V1.09091H184.884ZM184.813 8.57067V1.09091H220.054V8.57067H206.917V44H197.95V8.57067H184.813ZM217.444 1.09091H227.605L237.39 19.5703H237.809L247.593 1.09091H257.755L242.104 28.831V44H233.094V28.831L217.444 1.09091Z" fill="white"/>
</svg>
